<?xml version="1.0" encoding="utf-8"?>
<!-- Generator: Adobe Illustrator 21.1.0, SVG Export Plug-In . SVG Version: 6.00 Build 0)  -->
<svg version="1.1" id="Layer_1" xmlns="http://www.w3.org/2000/svg" xmlns:xlink="http://www.w3.org/1999/xlink" x="0px" y="0px"
	 viewBox="0 0 1000 1000" style="enable-background:new 0 0 1000 1000;" xml:space="preserve">
<style type="text/css">
	.st0{fill:#CCCCCC;}
	.st1{fill:#FFFFFF;}
</style>
<g>
	<path class="st0" d="M470.9,900.6h58.2c5,0,9.2,4.1,9.2,9.2v35.6c0,5-4.1,9.2-9.2,9.2h-58.2c-5,0-9.2-4.1-9.2-9.2v-35.6
		C461.7,904.7,465.9,900.6,470.9,900.6z"/>
	<ellipse class="st1" cx="520.7" cy="927.5" rx="5.5" ry="6"/>
	<ellipse class="st1" cx="499.6" cy="927.5" rx="5.5" ry="6"/>
	<ellipse class="st1" cx="478.5" cy="927.5" rx="5.5" ry="6"/>
	<path class="st0" d="M537.5,886c-6.2,3.6-13.2,9.2-15.4,17.2h-23.3c0,0,20.3-14,37.6-19.8C537.9,882.8,538.9,885.1,537.5,886z"/>
</g>
</svg>
