<?xml version="1.0" encoding="utf-8"?>
<!-- Generator: Adobe Illustrator 21.1.0, SVG Export Plug-In . SVG Version: 6.00 Build 0)  -->
<svg version="1.1" id="Layer_1" xmlns="http://www.w3.org/2000/svg" xmlns:xlink="http://www.w3.org/1999/xlink" x="0px" y="0px"
	 viewBox="0 0 1000 1000" style="enable-background:new 0 0 1000 1000;" xml:space="preserve">
<style type="text/css">
	.st0{fill:#CCCCCC;}
	.st1{fill:#FFFFFF;}
</style>
<g>
	<path class="st0" d="M855,212.9h-58.2c-5,0-9.2-4.1-9.2-9.2v-35.6c0-5,4.1-9.2,9.2-9.2H855c5,0,9.2,4.1,9.2,9.2v35.6
		C864.2,208.8,860,212.9,855,212.9z"/>
	<ellipse class="st1" cx="805.2" cy="185.9" rx="5.5" ry="6"/>
	<ellipse class="st1" cx="826.3" cy="185.9" rx="5.5" ry="6"/>
	<ellipse class="st1" cx="847.4" cy="185.9" rx="5.5" ry="6"/>
	<path class="st0" d="M788.4,227.5c6.2-3.6,13.2-9.2,15.4-17.2h23.3c0,0-20.3,14-37.6,19.8C788,230.6,787,228.4,788.4,227.5z"/>
</g>
</svg>
