<?xml version="1.0" encoding="utf-8"?>
<!-- Generator: Adobe Illustrator 21.1.0, SVG Export Plug-In . SVG Version: 6.00 Build 0)  -->
<svg version="1.1" id="Layer_1" xmlns="http://www.w3.org/2000/svg" xmlns:xlink="http://www.w3.org/1999/xlink" x="0px" y="0px"
	 viewBox="0 0 1000 1000" style="enable-background:new 0 0 1000 1000;" xml:space="preserve">
<style type="text/css">
	.st0{fill:#CCCCCC;}
	.st1{fill:#FFFFFF;}
</style>
<g>
	<path class="st0" d="M151.6,785.8h58.2c5,0,9.2,4.1,9.2,9.2v35.6c0,5-4.1,9.2-9.2,9.2h-58.2c-5,0-9.2-4.1-9.2-9.2V795
		C142.4,789.9,146.6,785.8,151.6,785.8z"/>
	<ellipse class="st1" cx="201.4" cy="812.8" rx="5.5" ry="6"/>
	<ellipse class="st1" cx="180.3" cy="812.8" rx="5.5" ry="6"/>
	<ellipse class="st1" cx="159.2" cy="812.8" rx="5.5" ry="6"/>
	<path class="st0" d="M218.1,771.2c-6.2,3.6-13.2,9.2-15.4,17.2h-23.3c0,0,20.3-14,37.6-19.8C218.6,768,219.6,770.3,218.1,771.2z"/>
</g>
</svg>
