<?xml version="1.0" encoding="utf-8"?>
<!-- Generator: Adobe Illustrator 21.1.0, SVG Export Plug-In . SVG Version: 6.00 Build 0)  -->
<svg version="1.1" id="Layer_1" xmlns="http://www.w3.org/2000/svg" xmlns:xlink="http://www.w3.org/1999/xlink" x="0px" y="0px"
	 viewBox="0 0 1000 1000" style="enable-background:new 0 0 1000 1000;" xml:space="preserve">
<style type="text/css">
	.st0{fill:#CCCCCC;}
	.st1{fill:#FFFFFF;}
</style>
<path class="st0" d="M529.2,98.5h-58.3c-5,0-9.2-4.1-9.2-9.2V53.7c0-5,4.1-9.2,9.2-9.2h58.3c5,0,9.2,4.1,9.2,9.2v35.7
	C538.3,94.4,534.2,98.5,529.2,98.5z"/>
<ellipse class="st1" cx="479.3" cy="71.5" rx="5.5" ry="6"/>
<ellipse class="st1" cx="500.4" cy="71.5" rx="5.5" ry="6"/>
<ellipse class="st1" cx="521.5" cy="71.5" rx="5.5" ry="6"/>
<path class="st0" d="M462.5,113.2c6.3-3.6,13.2-9.3,15.5-17.2h23.4c0,0-20.4,14-37.7,19.8C462,116.3,461,114.1,462.5,113.2z"/>
</svg>
