<?xml version="1.0" encoding="utf-8"?>
<!-- Generator: Adobe Illustrator 21.1.0, SVG Export Plug-In . SVG Version: 6.00 Build 0)  -->
<svg version="1.1" id="Layer_1" xmlns="http://www.w3.org/2000/svg" xmlns:xlink="http://www.w3.org/1999/xlink" x="0px" y="0px"
	 viewBox="0 0 1000 1000" style="enable-background:new 0 0 1000 1000;" xml:space="preserve">
<style type="text/css">
	.st0{fill:#CCCCCC;}
	.st1{fill:#FFFFFF;}
</style>
<g>
	<path class="st0" d="M95,515H36.8c-5,0-9.2-4.1-9.2-9.2v-35.6c0-5,4.1-9.2,9.2-9.2H95c5,0,9.2,4.1,9.2,9.2v35.6
		C104.2,510.9,100.1,515,95,515z"/>
	<ellipse class="st1" cx="45.3" cy="488.1" rx="5.5" ry="6"/>
	<ellipse class="st1" cx="66.3" cy="488.1" rx="5.5" ry="6"/>
	<ellipse class="st1" cx="87.4" cy="488.1" rx="5.5" ry="6"/>
	<path class="st0" d="M106,530.1c-6.2-3.6-13.2-9.2-15.4-17.2H67.3c0,0,20.3,14,37.6,19.8C106.5,533.2,107.5,530.9,106,530.1z"/>
</g>
</svg>
