<?xml version="1.0" encoding="utf-8"?>
<!-- Generator: Adobe Illustrator 21.1.0, SVG Export Plug-In . SVG Version: 6.00 Build 0)  -->
<svg version="1.1" id="Layer_1" xmlns="http://www.w3.org/2000/svg" xmlns:xlink="http://www.w3.org/1999/xlink" x="0px" y="0px"
	 viewBox="0 0 1000 1000" style="enable-background:new 0 0 1000 1000;" xml:space="preserve">
<style type="text/css">
	.st0{fill:#769CD2;}
	.st1{fill:#FFFFFF;}
	.st2{fill:#FDF7BA;}
</style>
<g>
	<g>
		<path class="st0" d="M608.7,568.6H379.8c-16.3,0-29.6-13.2-29.6-29.6V377.6c0-16.3,13.2-29.6,29.6-29.6h192.8
			c36.3,0,65.7,29.4,65.7,65.7v125.4C638.3,555.4,625.1,568.6,608.7,568.6z"/>
		<path d="M608.7,570.7H379.8c-17.5,0-31.7-14.2-31.7-31.7V377.6c0-17.5,14.2-31.7,31.7-31.7h192.8c37.4,0,67.8,30.4,67.8,67.8
			v125.4C640.4,556.5,626.2,570.7,608.7,570.7z M379.8,350.1c-15.2,0-27.5,12.3-27.5,27.5v161.5c0,15.2,12.3,27.5,27.5,27.5h228.9
			c15.2,0,27.5-12.3,27.5-27.5V413.7c0-35.1-28.5-63.6-63.6-63.6H379.8z"/>
	</g>
	<g>
		<path class="st0" d="M653.6,416.1V489c0,3.9,1.6,7.6,4.5,10.2l59.5,54.9c6,5.5,15.7,1.3,15.7-6.9V367c0-7.8-8.9-12.2-15.1-7.4
			l-59.2,45.5C655.6,407.7,653.6,411.8,653.6,416.1z"/>
		<path d="M723.9,558.7c-2.8,0-5.5-1-7.7-3.1l-59.5-54.9c-3.3-3-5.2-7.3-5.2-11.8v-72.8c0-4.9,2.3-9.7,6.3-12.7l59.2-45.5
			c3.5-2.7,8.1-3.1,12-1.2c3.9,1.9,6.4,5.9,6.4,10.3v180.3c0,4.6-2.6,8.6-6.9,10.5C727,558.4,725.4,558.7,723.9,558.7z M723.9,359.7
			c-1.6,0-3.1,0.5-4.4,1.5l-59.2,45.5c-2.9,2.2-4.6,5.7-4.6,9.4V489c0,3.3,1.4,6.5,3.8,8.7l59.5,54.9c2.6,2.4,5.7,2.2,7.9,1.3
			c2.1-0.9,4.4-3.2,4.4-6.7V367c0-2.8-1.5-5.3-4.1-6.5C726.1,359.9,725,359.7,723.9,359.7z"/>
	</g>
	<g>
		<circle class="st1" cx="349.4" cy="569.3" r="82.8"/>
		<path d="M349.4,654.1c-46.8,0-84.8-38.1-84.8-84.8c0-46.8,38.1-84.8,84.8-84.8s84.8,38.1,84.8,84.8
			C434.3,616.1,396.2,654.1,349.4,654.1z M349.4,488.6c-44.5,0-80.7,36.2-80.7,80.7c0,44.5,36.2,80.7,80.7,80.7s80.7-36.2,80.7-80.7
			C430.1,524.8,393.9,488.6,349.4,488.6z"/>
	</g>
	<g>
		<path class="st2" d="M391.1,560.9h-33.3v-33.3c0-2.3-1.9-4.2-4.2-4.2h-8.2c-2.3,0-4.2,1.9-4.2,4.2v33.3h-33.3
			c-2.3,0-4.2,1.9-4.2,4.2v8.2c0,2.3,1.9,4.2,4.2,4.2h33.3V611c0,2.3,1.9,4.2,4.2,4.2h8.2c2.3,0,4.2-1.9,4.2-4.2v-33.3h33.3
			c2.3,0,4.2-1.9,4.2-4.2v-8.2C395.4,562.8,393.5,560.9,391.1,560.9z"/>
		<path d="M353.6,617.3h-8.2c-3.5,0-6.3-2.8-6.3-6.3v-31.3h-31.3c-3.5,0-6.3-2.8-6.3-6.3v-8.2c0-3.5,2.8-6.3,6.3-6.3H339v-31.3
			c0-3.5,2.8-6.3,6.3-6.3h8.2c3.5,0,6.3,2.8,6.3,6.3v31.3h31.3c3.5,0,6.3,2.8,6.3,6.3v8.2c0,3.5-2.8,6.3-6.3,6.3h-31.3V611
			C359.9,614.5,357,617.3,353.6,617.3z M307.7,563c-1.2,0-2.1,1-2.1,2.1v8.2c0,1.2,1,2.1,2.1,2.1h33.3c1.2,0,2.1,0.9,2.1,2.1V611
			c0,1.2,1,2.1,2.1,2.1h8.2c1.2,0,2.1-1,2.1-2.1v-33.3c0-1.2,0.9-2.1,2.1-2.1h33.3c1.2,0,2.1-1,2.1-2.1v-8.2c0-1.2-1-2.1-2.1-2.1
			h-33.3c-1.2,0-2.1-0.9-2.1-2.1v-33.3c0-1.2-1-2.1-2.1-2.1h-8.2c-1.2,0-2.1,1-2.1,2.1v33.3c0,1.2-0.9,2.1-2.1,2.1H307.7z"/>
	</g>
</g>
</svg>
