<?xml version="1.0" encoding="utf-8"?>
<!-- Generator: Adobe Illustrator 21.1.0, SVG Export Plug-In . SVG Version: 6.00 Build 0)  -->
<svg version="1.1" id="Layer_1" xmlns="http://www.w3.org/2000/svg" xmlns:xlink="http://www.w3.org/1999/xlink" x="0px" y="0px"
	 viewBox="0 0 1000 1000" style="enable-background:new 0 0 1000 1000;" xml:space="preserve">
<style type="text/css">
	.st0{display:none;}
	.st1{display:inline;}
	.st2{fill:#769CD2;}
	.st3{fill:#FFFFFF;}
	.st4{fill:#FDF7BA;}
	.st5{fill:#E0E0E0;}
	.st6{fill:#C1C1C1;}
	.st7{fill:#B6D7F2;}
	.st8{fill:none;stroke:#000000;stroke-miterlimit:10;}
	.st9{opacity:0.45;}
	.st10{clip-path:url(#SVGID_2_);}
	.st11{fill:#B7C9E8;}
</style>
<g class="st0">
	<g class="st1">
		<path class="st2" d="M608.7,568.6H379.8c-16.3,0-29.6-13.2-29.6-29.6V377.6c0-16.3,13.2-29.6,29.6-29.6h192.8
			c36.3,0,65.7,29.4,65.7,65.7v125.4C638.3,555.4,625.1,568.6,608.7,568.6z"/>
		<path d="M608.7,570.7H379.8c-17.5,0-31.7-14.2-31.7-31.7V377.6c0-17.5,14.2-31.7,31.7-31.7h192.8c37.4,0,67.8,30.4,67.8,67.8
			v125.4C640.4,556.5,626.2,570.7,608.7,570.7z M379.8,350.1c-15.2,0-27.5,12.3-27.5,27.5v161.5c0,15.2,12.3,27.5,27.5,27.5h228.9
			c15.2,0,27.5-12.3,27.5-27.5V413.7c0-35.1-28.5-63.6-63.6-63.6H379.8z"/>
	</g>
	<g class="st1">
		<path class="st2" d="M653.6,416.1V489c0,3.9,1.6,7.6,4.5,10.2l59.5,54.9c6,5.5,15.7,1.3,15.7-6.9V367c0-7.8-8.9-12.2-15.1-7.4
			L659,405.1C655.6,407.7,653.6,411.8,653.6,416.1z"/>
		<path d="M723.9,558.7c-2.8,0-5.5-1-7.7-3.1l-59.5-54.9c-3.3-3-5.2-7.3-5.2-11.8v-72.8c0-4.9,2.3-9.7,6.3-12.7l59.2-45.5
			c3.5-2.7,8.1-3.1,12-1.2s6.4,5.9,6.4,10.3v180.3c0,4.6-2.6,8.6-6.9,10.5C727,558.4,725.4,558.7,723.9,558.7z M723.9,359.7
			c-1.6,0-3.1,0.5-4.4,1.5l-59.2,45.5c-2.9,2.2-4.6,5.7-4.6,9.4V489c0,3.3,1.4,6.5,3.8,8.7l59.5,54.9c2.6,2.4,5.7,2.2,7.9,1.3
			c2.1-0.9,4.4-3.2,4.4-6.7V367c0-2.8-1.5-5.3-4.1-6.5C726.1,359.9,725,359.7,723.9,359.7z"/>
	</g>
	<g class="st1">
		<circle class="st3" cx="349.4" cy="569.3" r="82.8"/>
		<path d="M349.4,654.1c-46.8,0-84.8-38.1-84.8-84.8c0-46.8,38.1-84.8,84.8-84.8s84.8,38.1,84.8,84.8
			C434.3,616.1,396.2,654.1,349.4,654.1z M349.4,488.6c-44.5,0-80.7,36.2-80.7,80.7s36.2,80.7,80.7,80.7s80.7-36.2,80.7-80.7
			C430.1,524.8,393.9,488.6,349.4,488.6z"/>
	</g>
	<g class="st1">
		<path class="st4" d="M391.1,560.9h-33.3v-33.3c0-2.3-1.9-4.2-4.2-4.2h-8.2c-2.3,0-4.2,1.9-4.2,4.2v33.3h-33.3
			c-2.3,0-4.2,1.9-4.2,4.2v8.2c0,2.3,1.9,4.2,4.2,4.2h33.3V611c0,2.3,1.9,4.2,4.2,4.2h8.2c2.3,0,4.2-1.9,4.2-4.2v-33.3h33.3
			c2.3,0,4.2-1.9,4.2-4.2v-8.2C395.4,562.8,393.5,560.9,391.1,560.9z"/>
		<path d="M353.6,617.3h-8.2c-3.5,0-6.3-2.8-6.3-6.3v-31.3h-31.3c-3.5,0-6.3-2.8-6.3-6.3v-8.2c0-3.5,2.8-6.3,6.3-6.3H339v-31.3
			c0-3.5,2.8-6.3,6.3-6.3h8.2c3.5,0,6.3,2.8,6.3,6.3v31.3h31.3c3.5,0,6.3,2.8,6.3,6.3v8.2c0,3.5-2.8,6.3-6.3,6.3h-31.3V611
			C359.9,614.5,357,617.3,353.6,617.3z M307.7,563c-1.2,0-2.1,1-2.1,2.1v8.2c0,1.2,1,2.1,2.1,2.1H341c1.2,0,2.1,0.9,2.1,2.1V611
			c0,1.2,1,2.1,2.1,2.1h8.2c1.2,0,2.1-1,2.1-2.1v-33.3c0-1.2,0.9-2.1,2.1-2.1h33.3c1.2,0,2.1-1,2.1-2.1v-8.2c0-1.2-1-2.1-2.1-2.1
			h-33.3c-1.2,0-2.1-0.9-2.1-2.1v-33.3c0-1.2-1-2.1-2.1-2.1h-8.2c-1.2,0-2.1,1-2.1,2.1v33.3c0,1.2-0.9,2.1-2.1,2.1h-33.3V563z"/>
	</g>
</g>
<g>
	<g>
		<polygon class="st5" points="596.3,718.6 466.2,718.6 484.4,650.9 578.1,650.9 		"/>
		<path d="M576.1,653.5l16.8,62.5H469.6l16.8-62.5H576.1 M578.1,650.9h-93.7l-18.2,67.7h130.1L578.1,650.9L578.1,650.9z"/>
	</g>
	<g>
		<path class="st6" d="M655.8,735.5H409.2c-1.6,0-2.9-1.3-2.9-2.9v-15c0-1.6,1.3-2.9,2.9-2.9h246.6c1.6,0,2.9,1.3,2.9,2.9v15
			C658.7,734.2,657.4,735.5,655.8,735.5z"/>
		<path d="M655.8,717.3c0.2,0,0.3,0.1,0.3,0.3v15c0,0.2-0.1,0.3-0.3,0.3H409.2c-0.2,0-0.3-0.1-0.3-0.3v-15c0-0.2,0.1-0.3,0.3-0.3
			H655.8 M655.8,714.7H409.2c-1.6,0-2.9,1.3-2.9,2.9v15c0,1.6,1.3,2.9,2.9,2.9h246.6c1.6,0,2.9-1.3,2.9-2.9v-15
			C658.7,716,657.4,714.7,655.8,714.7L655.8,714.7z"/>
	</g>
	<g>
		<path class="st3" d="M705.1,654.8H354.8c-16.1,0-29.1-13-29.1-29.1v-254c0-16.1,13-29.1,29.1-29.1h350.3c16.1,0,29.1,13,29.1,29.1
			v254C734.2,641.8,721.2,654.8,705.1,654.8z"/>
		<path d="M705.1,345.2c14.6,0,26.5,11.9,26.5,26.5v254c0,14.6-11.9,26.5-26.5,26.5H354.8c-14.6,0-26.5-11.9-26.5-26.5v-254
			c0-14.6,11.9-26.5,26.5-26.5H705.1 M705.1,342.6H354.8c-16.1,0-29.1,13-29.1,29.1v254c0,16.1,13,29.1,29.1,29.1h350.3
			c16.1,0,29.1-13,29.1-29.1v-254C734.2,355.6,721.2,342.6,705.1,342.6L705.1,342.6z"/>
	</g>
	<g>
		<path class="st5" d="M705.1,605.4H354.8c-16.1,0-29.1-13-29.1-29.1V371.7c0-16.1,13-29.1,29.1-29.1h350.3
			c16.1,0,29.1,13,29.1,29.1v204.6C734.2,592.4,721.2,605.4,705.1,605.4z"/>
		<path d="M705.1,345.2c14.6,0,26.5,11.9,26.5,26.5v204.6c0,14.6-11.9,26.5-26.5,26.5H354.8c-14.6,0-26.5-11.9-26.5-26.5V371.7
			c0-14.6,11.9-26.5,26.5-26.5H705.1 M705.1,342.6H354.8c-16.1,0-29.1,13-29.1,29.1v204.6c0,16.1,13,29.1,29.1,29.1h350.3
			c16.1,0,29.1-13,29.1-29.1V371.7C734.2,355.6,721.2,342.6,705.1,342.6L705.1,342.6z"/>
	</g>
	<g>
		<path class="st7" d="M700.1,579.4H359.8c-3,0-5.5-2.5-5.5-5.5V376.7c0-3,2.5-5.5,5.5-5.5h340.3c3,0,5.5,2.5,5.5,5.5v197.2
			C705.6,576.9,703.1,579.4,700.1,579.4z"/>
		<path d="M700.1,373.8c1.6,0,2.9,1.3,2.9,2.9v197.2c0,1.6-1.3,2.9-2.9,2.9H359.8c-1.6,0-2.9-1.3-2.9-2.9V376.7
			c0-1.6,1.3-2.9,2.9-2.9H700.1 M700.1,371.2H359.8c-3,0-5.5,2.5-5.5,5.5v197.2c0,3,2.5,5.5,5.5,5.5h340.3c3,0,5.5-2.5,5.5-5.5
			V376.7C705.6,373.7,703.1,371.2,700.1,371.2L700.1,371.2z"/>
	</g>
	<g>
		<circle class="st6" cx="531.2" cy="628.8" r="13"/>
		<path d="M531.2,618.4c5.7,0,10.4,4.7,10.4,10.4s-4.7,10.4-10.4,10.4s-10.4-4.7-10.4-10.4S525.5,618.4,531.2,618.4 M531.2,615.8
			c-7.2,0-13,5.8-13,13s5.8,13,13,13c7.2,0,13-5.8,13-13S538.4,615.8,531.2,615.8L531.2,615.8z"/>
	</g>
	<path class="st8" d="M496.1,528.6"/>
	<g>
		<g>
			<path class="st3" d="M554.6,509.2h-57.2v-15.9c0-7.7,3.8-14.7,9.8-18.3h0c10.9-6.5,24.7-6.7,35.8-0.6l1.3,0.7
				c6.3,3.5,10.3,10.7,10.3,18.6V509.2z"/>
			<path d="M554.6,510.5h-57.2c-0.7,0-1.3-0.6-1.3-1.3v-15.9c0-8.1,4-15.6,10.5-19.4c11.3-6.8,25.6-7,37.1-0.6l1.3,0.7
				c6.8,3.8,11,11.3,11,19.7v15.4C555.9,509.9,555.4,510.5,554.6,510.5z M498.7,507.9h54.6v-14.1c0-7.5-3.7-14.1-9.7-17.5l-1.3-0.7
				c-10.8-6-24-5.8-34.5,0.5c-5.7,3.4-9.2,10-9.2,17.2V507.9z"/>
		</g>
		<g>
			<circle class="st3" cx="526" cy="446.6" r="17"/>
			<path d="M526,432.3c7.9,0,14.4,6.4,14.4,14.4c0,7.9-6.4,14.4-14.4,14.4s-14.4-6.4-14.4-14.4C511.7,438.7,518.1,432.3,526,432.3
				 M526,429.7c-9.4,0-17,7.6-17,17c0,9.4,7.6,17,17,17s17-7.6,17-17C543,437.3,535.4,429.7,526,429.7L526,429.7z"/>
		</g>
	</g>
	<g>
		<g>
			<path class="st3" d="M661.3,509.2h-57.2v-15.9c0-7.7,3.8-14.7,9.8-18.3h0c10.9-6.5,24.7-6.7,35.8-0.6l1.3,0.7
				c6.3,3.5,10.3,10.7,10.3,18.6V509.2z"/>
			<path d="M661.3,510.5h-57.2c-0.7,0-1.3-0.6-1.3-1.3v-15.9c0-8.1,4-15.6,10.5-19.4c11.3-6.8,25.6-7,37.1-0.6l1.3,0.7
				c6.8,3.8,11,11.3,11,19.7v15.4C662.6,509.9,662.1,510.5,661.3,510.5z M605.4,507.9H660v-14.1c0-7.5-3.7-14.1-9.7-17.5l-1.3-0.7
				c-10.8-6-24-5.8-34.5,0.5c-5.7,3.4-9.2,10-9.2,17.2V507.9z"/>
		</g>
		<g>
			<circle class="st3" cx="632.7" cy="446.6" r="17"/>
			<path d="M632.7,432.3c7.9,0,14.4,6.4,14.4,14.4c0,7.9-6.4,14.4-14.4,14.4s-14.4-6.4-14.4-14.4
				C618.4,438.7,624.8,432.3,632.7,432.3 M632.7,429.7c-9.4,0-17,7.6-17,17c0,9.4,7.6,17,17,17s17-7.6,17-17
				C649.7,437.3,642.1,429.7,632.7,429.7L632.7,429.7z"/>
		</g>
	</g>
	<g>
		<g>
			<path class="st3" d="M615.8,528.6h-70.3v-19.5c0-9.4,4.6-18,12.1-22.5l0,0c13.3-8,30.3-8.3,44-0.7l1.5,0.9
				c7.8,4.3,12.7,13.2,12.7,22.8V528.6z"/>
			<path d="M615.8,529.9h-70.3c-0.7,0-1.3-0.6-1.3-1.3v-19.5c0-9.9,4.9-18.9,12.7-23.6c13.8-8.3,31.2-8.5,45.3-0.7l1.5,0.9
				c8.2,4.6,13.4,13.8,13.4,24v19C617.1,529.3,616.5,529.9,615.8,529.9z M546.8,527.3h67.7v-17.7c0-9.3-4.6-17.6-12-21.7l-1.5-0.9
				c-13.3-7.4-29.6-7.1-42.7,0.7c-7.1,4.2-11.4,12.4-11.4,21.4V527.3z"/>
		</g>
		<g>
			<circle class="st3" cx="580.7" cy="451.9" r="20.8"/>
			<path d="M580.7,433.6c10,0,18.2,8.2,18.2,18.2c0,10-8.2,18.2-18.2,18.2s-18.2-8.2-18.2-18.2C562.5,441.8,570.6,433.6,580.7,433.6
				 M580.7,431c-11.5,0-20.8,9.3-20.8,20.8c0,11.5,9.3,20.8,20.8,20.8c11.5,0,20.8-9.3,20.8-20.8C601.5,440.4,592.2,431,580.7,431
				L580.7,431z"/>
		</g>
	</g>
	<g class="st9">
		<path d="M700.1,579.4H359.8c-3,0-5.5-2.5-5.5-5.5V376.7c0-3,2.5-5.5,5.5-5.5h340.3c3,0,5.5,2.5,5.5,5.5v197.2
			C705.6,576.9,703.1,579.4,700.1,579.4z"/>
		<path d="M700.1,373.8c1.6,0,2.9,1.3,2.9,2.9v197.2c0,1.6-1.3,2.9-2.9,2.9H359.8c-1.6,0-2.9-1.3-2.9-2.9V376.7
			c0-1.6,1.3-2.9,2.9-2.9H700.1 M700.1,371.2H359.8c-3,0-5.5,2.5-5.5,5.5v197.2c0,3,2.5,5.5,5.5,5.5h340.3c3,0,5.5-2.5,5.5-5.5
			V376.7C705.6,373.7,703.1,371.2,700.1,371.2L700.1,371.2z"/>
	</g>
	<g>
		<defs>
			<path id="SVGID_1_" d="M703.2,576.8H273.4c-4.2,0-7.6-3.4-7.6-7.6V272.1c0-4.2,3.4-7.6,7.6-7.6h429.8c4.2,0,7.6,3.4,7.6,7.6
				v297.1C710.8,573.4,707.4,576.8,703.2,576.8z"/>
		</defs>
		<clipPath id="SVGID_2_">
			<use xlink:href="#SVGID_1_"  style="overflow:visible;"/>
		</clipPath>
		<g class="st10">
			<g>
				
					<rect x="326.1" y="314.4" transform="matrix(0.9328 -0.3605 0.3605 0.9328 -134.8631 186.4068)" class="st2" width="212.4" height="280.6"/>
				<path d="M383.8,625.2c-0.2,0-0.4,0-0.5-0.1c-0.3-0.1-0.6-0.4-0.7-0.7L281.4,362.6c-0.1-0.3-0.1-0.7,0-1c0.1-0.3,0.4-0.6,0.7-0.7
					l198.1-76.6c0.7-0.3,1.5,0.1,1.7,0.8l101.2,261.7c0.3,0.7-0.1,1.5-0.8,1.7l-198.1,76.6C384.1,625.2,383.9,625.2,383.8,625.2z
					 M284.4,362.9l100.2,259.2l195.6-75.6L480,287.3L284.4,362.9z"/>
			</g>
			<g>
				<polyline class="st2" points="320.8,394.8 341.4,403.9 355.2,372.8 				"/>
				<path d="M341.4,405.2c-0.2,0-0.4,0-0.5-0.1l-20.6-9.1c-0.7-0.3-1-1.1-0.7-1.8c0.3-0.7,1.1-1,1.8-0.7l19.3,8.5l13.2-29.9
					c0.3-0.7,1.1-1,1.8-0.7c0.7,0.3,1,1.1,0.7,1.8l-13.8,31.1C342.4,404.9,341.9,405.2,341.4,405.2z"/>
			</g>
			<g>
				<line class="st11" x1="377.4" y1="377.1" x2="475.4" y2="339.2"/>
				<path d="M377.4,378.5c-0.5,0-1-0.3-1.3-0.9c-0.3-0.7,0.1-1.5,0.8-1.7l98.1-37.9c0.7-0.3,1.5,0.1,1.7,0.8
					c0.3,0.7-0.1,1.5-0.8,1.7l-98.1,37.9C377.7,378.4,377.5,378.5,377.4,378.5z"/>
			</g>
			<g>
				<line class="st11" x1="334.6" y1="430.4" x2="487.8" y2="371.2"/>
				<path d="M334.6,431.8c-0.5,0-1.1-0.3-1.3-0.9c-0.3-0.7,0.1-1.5,0.8-1.7L487.3,370c0.7-0.3,1.5,0.1,1.7,0.8
					c0.3,0.7-0.1,1.5-0.8,1.7l-153.2,59.2C334.9,431.8,334.8,431.8,334.6,431.8z"/>
			</g>
			<g>
				<line class="st11" x1="347" y1="462.5" x2="500.2" y2="403.3"/>
				<path d="M347,463.8c-0.5,0-1-0.3-1.3-0.9c-0.3-0.7,0.1-1.5,0.8-1.7L499.7,402c0.7-0.3,1.5,0.1,1.7,0.8c0.3,0.7-0.1,1.5-0.8,1.7
					l-153.2,59.2C347.3,463.8,347.2,463.8,347,463.8z"/>
			</g>
			<g>
				<line class="st11" x1="414.5" y1="473.2" x2="512.6" y2="435.3"/>
				<path d="M414.5,474.6c-0.5,0-1-0.3-1.3-0.9c-0.3-0.7,0.1-1.5,0.8-1.7l98.1-37.9c0.7-0.3,1.5,0.1,1.7,0.8
					c0.3,0.7-0.1,1.5-0.8,1.7L415,474.5C414.8,474.5,414.7,474.6,414.5,474.6z"/>
			</g>
			<g>
				<line class="st11" x1="426.5" y1="504.3" x2="481.2" y2="483.1"/>
				<path d="M426.5,505.6c-0.5,0-1-0.3-1.3-0.9c-0.3-0.7,0.1-1.5,0.8-1.7l54.7-21.1c0.7-0.3,1.5,0.1,1.7,0.8
					c0.3,0.7-0.1,1.5-0.8,1.7L427,505.5C426.8,505.6,426.7,505.6,426.5,505.6z"/>
			</g>
			<g>
				<line class="st11" x1="391.2" y1="576.8" x2="439.4" y2="558.2"/>
				<path d="M391.2,578.2c-0.5,0-1-0.3-1.3-0.9c-0.3-0.7,0.1-1.5,0.8-1.7l48.2-18.6c0.7-0.3,1.5,0.1,1.7,0.8
					c0.3,0.7-0.1,1.5-0.8,1.7l-48.2,18.6C391.5,578.1,391.4,578.2,391.2,578.2z"/>
			</g>
			<g>
				<line class="st11" x1="489.7" y1="538.8" x2="544.4" y2="517.6"/>
				<path d="M489.7,540.1c-0.5,0-1-0.3-1.3-0.9c-0.3-0.7,0.1-1.5,0.8-1.7l54.7-21.1c0.7-0.3,1.5,0.1,1.7,0.8
					c0.3,0.7-0.1,1.5-0.8,1.7L490.2,540C490,540.1,489.8,540.1,489.7,540.1z"/>
			</g>
			<g>
				
					<rect x="370" y="492" transform="matrix(0.9328 -0.3605 0.3605 0.9328 -160.6338 175.4292)" class="st4" width="39.9" height="52.8"/>
				<path d="M380.9,551.6c-0.5,0-1-0.3-1.3-0.9l-19.1-49.3c-0.1-0.3-0.1-0.7,0-1c0.1-0.3,0.4-0.6,0.7-0.7l37.3-14.4
					c0.7-0.3,1.5,0.1,1.7,0.8l19.1,49.3c0.1,0.3,0.1,0.7,0,1c-0.1,0.3-0.4,0.6-0.7,0.7l-37.3,14.4
					C381.2,551.5,381.1,551.6,380.9,551.6z M363.6,501.7l18.1,46.8l34.7-13.4l-18.1-46.8L363.6,501.7z"/>
			</g>
		</g>
	</g>
</g>
</svg>
