<?xml version="1.0" encoding="utf-8"?>
<!-- Generator: Adobe Illustrator 21.1.0, SVG Export Plug-In . SVG Version: 6.00 Build 0)  -->
<svg version="1.1" id="Layer_1" xmlns="http://www.w3.org/2000/svg" xmlns:xlink="http://www.w3.org/1999/xlink" x="0px" y="0px"
	 viewBox="0 0 1000 1000" style="enable-background:new 0 0 1000 1000;" xml:space="preserve">
<style type="text/css">
	.st0{fill:#FFFFFF;}
	.st1{fill:#F1BF8E;}
	.st2{fill:#DDDDDD;}
	.st3{fill:#CDCAC7;}
	.st4{fill:#90663A;}
	.st5{fill:#5D5855;}
</style>
<g>
	<path class="st0" d="M748.1,521.2v-51.7c0-3.3-2.7-6-6-6h-69.8c-3.3,0-6,2.7-6,6v51.7c0,3.3,2.7,6,6,6H742
		C745.4,527.3,748.1,524.6,748.1,521.2z"/>
	<path class="st1" d="M706.5,470.5c-0.2,2.4-7.7,4-9.6,4.9c-2.9,1.4-5.3,3.4-7.3,6c-0.9,1.2-0.5,3.2,0.8,4c0.7,0.4,1.4,0.7,2.1,1
		c-0.6-0.5-1.1-0.9-1.7-1.4c-0.6-0.6-1.1-0.4-1.5,0.6c-0.9,1.1-1.1,2.1-0.7,3.4c0.9,2.5,2.3,6.1,5.4,6.4c1.2,0.1,2.1-0.3,3.1-1.1
		c0.5-0.4,1-1,1.5-1.5c0.4-0.4,0.8-0.7,1.1-1.1c0.6-0.4,0.5-0.7-0.4-1.1c-1.5,2.8,1.7,5.9,4.3,3.7c6.9-5.6,15.3-14.3,9.1-23.6
		c-1.4-2.1-4.2-2-5.3,0.4c-1.7,3.8-2.4,7.4-5.5,10.4c-2.3,2.2-5.6,1.5-8,3.6c1.6,0.8,3.2,1.5,4.8,2.3c0-3.5,2.1-6.4,5.8-6.3
		c-0.6-1.7-1.2-3.3-1.8-5c-2.7,2.3-4.6,4.9-6.1,8.1c-1.6,3.3,3.9,5.1,5.4,1.8c1.1-2.2,2.6-4,4.5-5.6s0.7-4.9-1.8-5
		c-6.8-0.2-11.7,5.1-11.8,11.7c0,2.4,2.9,3.9,4.8,2.3c1.1-1,3.3-0.7,4.6-1.3c1.9-0.8,3.3-2.2,4.7-3.7c3.1-3.6,4-7.3,5.9-11.5
		c-1.8,0.1-3.5,0.3-5.3,0.4c4.6,6.8-2.9,12.7-7.8,16.7c1.4,1.2,2.9,2.5,4.3,3.7c1.4-2.7,0.4-6.5-2.5-7.9c-3.8-1.8-5.7,2.4-8.3,4.1
		c0.7-0.1,1.5-0.1,2.2-0.2c-0.7-0.2-1.4-2.8-1.7-3.4c-0.2,1.1-0.4,2.3-0.7,3.4c2.9-3.3,5.2-6.6,0.4-9.3c0.3,1.3,0.5,2.6,0.8,4
		c2.6-3.4,6.8-4.9,10.7-6.2c3.8-1.3,6.8-3.2,7.1-7.5C712.5,467.1,706.7,466.8,706.5,470.5L706.5,470.5z"/>
	<path class="st1" d="M727.7,508.7c-1.3,1.2-2.6,1.9-4.2,2.5c1.1,0.5,2.3,1,3.4,1.5c-1-1.9-2.2-3.4-3.7-4.8
		c-1.5-1.3-3.4-2.5-4.6-4.2c0.3,0.7,0.5,1.4,0.8,2.1c0-2,0.5-4,0.6-5.9c0.1-2.1,0-4.3-0.1-6.4c-1.4,0.5-2.8,0.9-4.2,1.4
		c1,1.3,2.2,2.4,3.6,3.1c1.4,0.6,3.1,0.5,4.1,1.7c2.5,3,1.4,7.6,2.8,11c0.5-1.3,0.9-2.6,1.4-3.9c-0.9,0.2-1.8,0.5-2.8,0.5
		c0.6,0.2,1.2,0.3,1.9,0.5c-0.6-0.5-1.6-2.9-2.2-3.7c-0.7-0.9-2.6-3.9-3.7-3.6c-0.8-0.3-1.6-0.7-2.4-1c1.9,2.5,3.3,5.1,4.5,8
		c0.9,2.2,4.2,2.2,4.5-0.1c0.2-1.4,0.2-2.6-0.3-4.1c-1-3.5-5.8-2.8-4.8,0.8c0.1,0.4,0.1,0.9,0.2,1.3c1.5,0,3,0,4.5-0.1
		c-1.4-3.3-3.2-6.4-5.4-9.3c-0.5-0.7-1.7-1.3-2.4-1c-4,1.3-3.7,6-0.7,9.6c0.8,1,1.8,1.9,2.5,3c0.8,1.2,1.3,2.7,2.2,3.8
		c1.8,2.1,3.8,1.4,5.8,1c1.6-0.4,2.1-2.1,1.4-3.9c-0.7-1.7-0.3-4.2-0.8-6c-0.5-2-1.4-4-2.5-5.8c-0.9-1.4-1.8-2.4-3.2-3
		c-1.9-0.8-3.3-0.3-4.9-2.3c-1.5-1.9-4.4-1-4.2,1.4s0.2,4.7,0.1,7c-0.1,1.8-1,4.2-0.5,6.1c1.1,3.8,6.3,5.5,8.1,9
		c0.8,1.5,2.2,1.9,3.4,1.5c2-0.7,3.7-1.8,5.3-3.2C733.7,511,730,506.6,727.7,508.7L727.7,508.7z"/>
	<path class="st2" d="M734.1,510.5l-2.7-2.5c0,0-2.2,4.1-11.6,6.8l1.2,2.9C721,517.7,729.4,519.6,734.1,510.5z"/>
	<path class="st2" d="M708.6,467l-3.2,4.2c0,0,7.8,1.1,10.4,10.8l3.4-3C719.1,478.9,719.2,470.6,708.6,467z"/>
	<path class="st3" d="M878.2,416.9L765.5,436l6.1,61.5c0.2,2.6,0.2,5.2,0,7.7l-6.1,52.8l112.7,25
		C878.2,583.1,917.7,512.3,878.2,416.9z"/>
	<path class="st0" d="M769.1,481.5c0,0,1.5,13.7,0,37.7l36.5,1.3l22.1-7.1l-5-24.5l-0.8-11.5L769.1,481.5z"/>
	<path class="st4" d="M769.2,513c-0.1,9.7-2.7,26.1-3.5,31.2c-0.1,0.8,0.5,1.5,1.4,1.5l8.6-0.8c1.6-0.2,1.9,2.3,0.3,2.5
		c-5.1,0.7-6.4-1.3-6.7-1.8c-0.1-0.1-0.1-0.2-0.2-0.3l-33.6-35c-0.5-0.5-1.3-0.5-1.8,0c-4.1,3.8-9.3,6.3-11.8,7.4
		c-0.7,0.3-1,1.2-0.6,1.8l29.1,46.7c0.1,0.2,0.3,0.3,0.5,0.4c9.1,5.3,17.1,5.5,18.1,5.5c0.1,0,0.2,0,0.2,0l59.1-11.3
		c0.1,0,0.1,0,0.2,0c8.3-2.4,13.5-13.1,14-14c0-0.1,0-0.1,0.1-0.1c18.5-57.8-0.3-93.1-1.2-94.8c0,0,0-0.1-0.1-0.1
		c-3.9-11-15.4-13.4-15.4-13.4l-43-11.3c-25.6-7.9-32-1.6-32-1.6c-8.1,4-45.5,42.4-45.5,42.4c10.8,1.6,13.6,12.3,13.6,12.3
		l43.4-26.2c0.1-0.1,0.1-0.1,0.2-0.2c3-2.8,8.3-1.8,12.5-0.2c1.4,0.5,0.9,2.6-0.5,2.4l-7.3-0.7c-0.8-0.1-1.5,0.7-1.4,1.5
		c1.8,9.4,3.5,27.3,3.8,30.8c0,0.4,0.3,0.8,0.6,1c7.8,4.3,43.7,3.3,51.1,3.1c0.7,0,1.3,0.6,1.3,1.3l-0.7,17.4c0,0.7-0.6,1.2-1.2,1.2
		l-50.2,0.4C769.8,511.8,769.2,512.3,769.2,513z"/>
	<path class="st1" d="M827.5,478.4c-2.3,1.4-4.9,3.6-7.8,6.7c-0.1,0.1-0.3,0.3-0.4,0.5c-0.7,1-4,5.3-7.6,5.6c-1.1,0.1-2.2,0.4-3,1.1
		c-1.3,1-2.5,2.8-0.6,5.3c0,0,5.7,6.2,6,11.2c0,0.4,0.1,0.8,0.2,1.2c0.3,1.2,1.1,3.9,2.6,6.4c2.2,3.9,8.1,3.1,9.3-1.2l8.8-31
		C836.3,479.8,831.4,476,827.5,478.4z"/>
	<path class="st5" d="M768.4,524.7c-2,5.8-1.8,9.7-1.4,11.2c0.5,2,21.4,4.2,33.9,4.3c5.6,0,8.7-2.5,14.2-3.5c8.7-1.6,19,0.5,19,0.5
		c24.3,4.9,37.4-7.8,37.4-7.8c16.8-13.4,9.1-35,7.4-39.3c-0.2-0.4-0.4-0.9-0.6-1.3c-14.5-25-37-20.3-41.2-19.2
		c-0.4,0.1-0.8,0.3-1.2,0.4c-4.5,1-9,1.6-12.8,1.8c-4.9,0.4-9.9,0-14.6-1.4c-11.6-3.3-29.6-0.1-36,1.6c-5.4,1.4-4.5,4-3.4,9.5
		c0.7,3.5,5.7,6.4,12.1,5.5l10.4-0.8c1.6-0.1,3.2-0.3,4.8-0.6c6.9-1.4,26.1-4.1,31.8-4.7c1.4-0.1,2.3,1.5,1.4,2.6
		c-3.4,4-2.8,10-2.4,12.7c0.1,0.8-0.3,1.5-1.1,1.8c-5.1,1.7-7.1,6.1-7.8,10.3c-0.6,3.9-3.5,7-7.1,8.3c-1.3,0.5-2.7,0.9-3.9,1.5l0,0
		c-2.6,1.2-5.5,1.9-8.5,1.9C789.8,520,769.8,520.5,768.4,524.7z"/>
</g>
</svg>
