<?xml version="1.0" encoding="utf-8"?>
<!-- Generator: Adobe Illustrator 21.1.0, SVG Export Plug-In . SVG Version: 6.00 Build 0)  -->
<svg version="1.1" id="Layer_1" xmlns="http://www.w3.org/2000/svg" xmlns:xlink="http://www.w3.org/1999/xlink" x="0px" y="0px"
	 viewBox="0 0 1000 1000" style="enable-background:new 0 0 1000 1000;" xml:space="preserve">
<style type="text/css">
	.st0{fill:#FFFFFF;}
	.st1{fill:#F1BF8E;}
	.st2{fill:#CBBAB2;}
	.st3{fill:#CDCAC7;}
	.st4{fill:#5D5855;}
	.st5{fill:#D4962B;}
</style>
<g>
	<path class="st0" d="M339.6,306.1l-32.1,32.2c-2.1,2.1-2.1,5.4,0,7.5L351,389c2.1,2.1,5.4,2.1,7.5,0l32.1-32.2
		c2.1-2.1,2.1-5.4,0-7.5l-43.5-43.2C345,304,341.7,304,339.6,306.1z"/>
	<path class="st1" d="M330.4,356.7c1.3-2.1,8.7-0.1,10.8-0.1c3.2,0,6.3-0.6,9.2-2c1.3-0.6,1.9-2.7,1.1-3.9c-0.4-0.7-0.9-1.3-1.4-1.9
		c0.3,0.7,0.6,1.3,0.8,2c0.3,0.8,0.8,0.9,1.6,0.1c1.3-0.5,2-1.4,2.1-2.8c0.3-2.6,0.7-6.4-1.9-8.1c-1-0.7-2-0.7-3.2-0.4
		c-0.7,0.1-1.3,0.4-2,0.6c-0.5,0.2-1,0.3-1.5,0.5c-0.7,0-0.8,0.4-0.1,1.1c2.6-1.8,1.2-6-2.1-5.2c-8.7,1.9-20.1,5.9-18.8,17
		c0.3,2.6,2.9,3.6,4.9,2c3.2-2.6,5.5-5.5,9.6-6.8c3-1,5.7,1.2,8.8,0.4c-1.1-1.4-2.1-2.8-3.2-4.2c-1.6,3.1-4.7,4.8-8,3
		c-0.2,1.8-0.4,3.5-0.7,5.3c3.4-0.8,6.3-2.3,9.1-4.5c2.9-2.2-1.2-6.3-4.1-4c-2,1.5-4.1,2.4-6.5,3s-2.8,4.1-0.7,5.3
		c6,3.2,12.7,0.7,15.8-5.2c1.1-2.2-0.8-4.8-3.2-4.2c-1.4,0.4-3.3-0.8-4.7-0.9c-2.1-0.2-4,0.4-5.9,1.2c-4.4,1.8-6.9,4.8-10.4,7.6
		c1.6,0.7,3.3,1.3,4.9,2c-1-8.2,8.4-10.1,14.5-11.4c-0.7-1.7-1.4-3.5-2.1-5.2c-2.5,1.8-3.3,5.6-1.3,8.2c2.6,3.3,6.1,0.4,9.3,0
		c-0.7-0.3-1.3-0.6-2-0.8c0.6,0.5,0,3.2-0.1,3.8c0.7-0.9,1.4-1.8,2.1-2.8c-4,1.6-7.6,3.6-4.5,8.1c0.4-1.3,0.7-2.6,1.1-3.9
		c-3.9,1.9-8.3,1.3-12.4,0.7c-3.9-0.5-7.6-0.2-9.8,3.5C323.6,357,328.5,359.9,330.4,356.7L330.4,356.7z"/>
	<path class="st1" d="M345.9,332.1c1.7,0.1,3.2,0.5,4.7,1.2c-0.5-1.2-0.9-2.3-1.4-3.5c-0.6,2-0.8,3.9-0.7,6c0.1,2,0.6,4.2,0.3,6.2
		c0.3-0.7,0.6-1.4,0.9-2c-1.4,1.4-3.1,2.5-4.6,3.8c-1.6,1.4-3,3-4.5,4.7c1.3,0.7,2.6,1.3,3.9,2c0.2-1.6,0.1-3.3-0.4-4.7
		c-0.5-1.4-1.9-2.6-1.7-4.1c0.3-3.9,4.3-6.4,5.7-9.8c-1.2,0.6-2.5,1.2-3.7,1.7c0.8,0.5,1.6,1,2.3,1.6c-0.3-0.6-0.6-1.1-1-1.7
		c0.1,0.7-0.9,3.2-1.1,4.2c-0.2,1.1-0.9,4.6,0.1,5.2c0.3,0.8,0.7,1.6,1,2.4c0.4-3.1,1.3-6,2.4-8.9c0.9-2.3-1.5-4.5-3.3-3.2
		c-1.2,0.9-2,1.8-2.7,3.1c-1.8,3.2,2.1,6.1,3.9,2.8c0.3-0.4,0.5-0.7,0.8-1.1c-1.1-1.1-2.2-2.1-3.3-3.2c-1.4,3.4-2.2,6.8-2.7,10.4
		c-0.1,0.9,0.3,2.1,1,2.4c3.8,1.9,6.9-1.7,7.3-6.3c0.1-1.3,0.1-2.6,0.3-3.9c0.3-1.4,1-2.8,1.1-4.3c0.2-2.7-1.7-3.7-3.4-4.7
		c-1.4-0.9-3,0-3.7,1.7s-2.7,3.2-3.6,4.8c-1.1,1.8-1.9,3.8-2.3,5.9c-0.3,1.6-0.4,3,0.2,4.4c0.8,2,2.1,2.6,1.8,5.1
		c-0.3,2.4,2.4,3.8,3.9,2s3.1-3.5,4.9-5c1.4-1.2,3.7-2.3,4.6-4c1.9-3.4-0.6-8.4,0.6-12.1c0.5-1.6-0.2-2.9-1.4-3.5
		c-1.9-0.9-3.9-1.3-6-1.4C343.3,326.3,342.8,332,345.9,332.1L345.9,332.1z"/>
	<path class="st2" d="M342.6,326.3l0.1,3.7c0,0,4.4-1.3,13,3.3l1.2-2.9C357,330.5,352.4,323.2,342.6,326.3z"/>
	<path class="st2" d="M327,358.9l4.8-2.3c0,0-6.5-4.5-4.4-14.3l-4.3,1.2C323,343.5,319.1,350.9,327,358.9z"/>
	<path class="st3" d="M174.5,291.1l93.4,65.9l39-47.9c1.7-2,3.5-3.8,5.5-5.5l41.6-33.1l-62.2-97.2
		C291.7,173.2,213.8,195.5,174.5,291.1z"/>
	<path class="st2" d="M297.4,322.2c0,0,8.7-10.7,26.6-26.7L301.2,271l-19.3-9.2l-14.1,20.6l-7.6,8.7L297.4,322.2z"/>
	<path class="st4" d="M319.6,299.8c6.9-6.8,20.3-16.6,24.5-19.7c0.7-0.5,0.7-1.5,0.1-2l-6.6-5.5c-1.3-1,0.3-3,1.5-2
		c4.1,3.1,3.6,5.4,3.4,6c0,0.1-0.1,0.2-0.1,0.4l-0.8,48.5c0,0.7,0.5,1.3,1.2,1.3c5.5,0.2,11.1,2.1,13.5,3.1c0.7,0.3,1.5-0.1,1.7-0.9
		l12.3-53.6c0-0.2,0-0.4,0-0.6c-2.8-10.2-8.2-16-9-16.7c-0.1-0.1-0.1-0.1-0.2-0.2l-49.9-33.7l-0.1-0.1c-7.5-4.1-18.7-0.3-19.8,0.1
		c-0.1,0-0.1,0-0.2,0.1c-53.8,27.9-65.4,66.1-66,68c0,0.1,0,0.1-0.1,0.2c-5,10.5,1.5,20.4,1.5,20.4l22.5,38.3
		c12.6,23.6,21.6,23.7,21.6,23.7c7.5,2.5,46.9-11.3,56.8-14.9c0.9-0.3,1.1-1.5,0.4-2.1c-5.2-4.5-4.4-11.8-3.7-15.2
		c0.2-0.8-0.5-1.6-1.4-1.5l-40,5.4c-0.1,0-0.2,0-0.3,0c-4.1-0.2-7.1-4.6-9.1-8.7c-0.6-1.3,1.2-2.5,2.1-1.3l4.7,5.7
		c0.5,0.6,1.5,0.6,2-0.1c5.4-7.9,16.8-21.8,19-24.5c0.3-0.3,0.4-0.8,0.2-1.2c-2.5-8.5-28.6-33.2-34.1-38.3c-0.5-0.5-0.5-1.3,0-1.8
		l12.8-11.8c0.5-0.5,1.3-0.4,1.7,0l35.8,35.1C318.3,300.3,319.1,300.3,319.6,299.8z"/>
	<path class="st1" d="M236.7,280.5c0,0,5.1,6.6,22.2,3.5c0,0,7.1-2.3,10.8,0.1c1.2,0.8,2.7,1.1,4.1,0.9c1.6-0.2,3.3-1.1,3.4-4
		c0,0-0.7-9.5,3-13.7c0,0,6-11.8,0.2-17.3L236.7,280.5z"/>
	<path class="st5" d="M242.2,297.8c0,0-8.9-1.9-16.3-23.2c0,0-2.1-10.9-1.6-13.6c0,0-9.7-20.7,8.4-37.8c0,0,17.2-14.4,40.8,4.3
		c0,0,0,0,0.1,0.1c7.6,4.7,14.3,10.7,19.7,17.8c3.1,4.2,5.9,8.9,6.2,12.3c0,0-0.2,5.3-4.4-0.1c0,0-3.7,0.3-0.2,4.3
		c0,0-1.3,4.4-5.6-1.6v5.2c0,0-2,4-4.3-5.7c0,0-2.2,2.7-3.9-0.2c0,0-8.2,10.2-18.3,10.1c0,0-3.2,1.1-4.6,4.6c0,0-5.8,8.4-11.4,6.3
		c0,0-3.4-0.7-2.3,5.9c0,0,0.5,4-4.1,2.4l3.7,4.4C244.1,293.3,246.7,296.8,242.2,297.8z"/>
</g>
</svg>
