<?xml version="1.0" encoding="utf-8"?>
<!-- Generator: Adobe Illustrator 21.1.0, SVG Export Plug-In . SVG Version: 6.00 Build 0)  -->
<svg version="1.1" id="Layer_1" xmlns="http://www.w3.org/2000/svg" xmlns:xlink="http://www.w3.org/1999/xlink" x="0px" y="0px"
	 viewBox="0 0 1000 1000" style="enable-background:new 0 0 1000 1000;" xml:space="preserve">
<style type="text/css">
	.st0{fill:#FFFFFF;}
	.st1{fill:#F1BF8E;}
	.st2{fill:#5A9AC1;}
	.st3{fill:#CDCAC7;}
	.st4{fill:#5D5855;}
	.st5{fill:#8F5A24;}
</style>
<g>
	<path class="st0" d="M477.8,751.7h51.7c3.3,0,6-2.7,6-6v-69.8c0-3.3-2.7-6-6-6h-51.7c-3.3,0-6,2.7-6,6v69.8
		C471.8,748.9,474.5,751.7,477.8,751.7z"/>
	<path class="st1" d="M528.5,710.1c-2.4-0.2-4-7.7-4.9-9.6c-1.4-2.9-3.4-5.3-6-7.3c-1.2-0.9-3.2-0.5-4,0.8c-0.4,0.7-0.7,1.4-1,2.1
		c0.5-0.6,0.9-1.1,1.4-1.7c0.6-0.6,0.4-1.1-0.6-1.5c-1.1-0.9-2.1-1.1-3.4-0.7c-2.5,0.9-6.1,2.3-6.4,5.4c-0.1,1.2,0.3,2.1,1.1,3.1
		c0.4,0.5,1,1,1.5,1.5c0.4,0.4,0.7,0.8,1.1,1.1c0.4,0.6,0.7,0.5,1.1-0.4c-2.8-1.5-5.9,1.7-3.7,4.3c5.6,6.9,14.3,15.3,23.6,9.1
		c2.1-1.4,2-4.2-0.4-5.3c-3.8-1.7-7.4-2.4-10.4-5.5c-2.2-2.3-1.5-5.6-3.6-8c-0.8,1.6-1.5,3.2-2.3,4.8c3.5,0,6.4,2.1,6.3,5.8
		c1.7-0.6,3.3-1.2,5-1.8c-2.3-2.7-4.9-4.6-8.1-6.1c-3.3-1.6-5.1,3.9-1.8,5.4c2.2,1.1,4,2.6,5.6,4.5s4.9,0.7,5-1.8
		c0.2-6.8-5.1-11.7-11.7-11.8c-2.4,0-3.9,2.9-2.3,4.8c1,1.1,0.7,3.3,1.3,4.6c0.8,1.9,2.2,3.3,3.7,4.7c3.6,3.1,7.3,4,11.5,5.9
		c-0.1-1.8-0.3-3.5-0.4-5.3c-6.8,4.6-12.7-2.9-16.7-7.8c-1.2,1.4-2.5,2.9-3.7,4.3c2.7,1.4,6.5,0.4,7.9-2.5c1.8-3.8-2.4-5.7-4.1-8.3
		c0.1,0.7,0.1,1.5,0.2,2.2c0.2-0.7,2.8-1.4,3.4-1.7c-1.1-0.2-2.3-0.4-3.4-0.7c3.3,2.9,6.6,5.2,9.3,0.4c-1.3,0.3-2.6,0.5-4,0.8
		c3.4,2.6,4.9,6.8,6.2,10.7c1.3,3.8,3.2,6.8,7.5,7.1C531.9,716,532.2,710.3,528.5,710.1L528.5,710.1z"/>
	<path class="st1" d="M490.3,731.3c-1.2-1.3-1.9-2.6-2.5-4.2c-0.5,1.1-1,2.3-1.5,3.4c1.9-1,3.4-2.2,4.8-3.7c1.3-1.5,2.5-3.4,4.2-4.6
		c-0.7,0.3-1.4,0.5-2.1,0.8c2,0,4,0.5,5.9,0.6c2.1,0.1,4.3,0,6.4-0.1c-0.5-1.4-0.9-2.8-1.4-4.2c-1.3,1-2.4,2.2-3.1,3.6
		c-0.6,1.4-0.5,3.1-1.7,4.1c-3,2.5-7.6,1.4-11,2.8c1.3,0.5,2.6,0.9,3.9,1.4c-0.2-0.9-0.5-1.8-0.5-2.8c-0.2,0.6-0.3,1.2-0.5,1.9
		c0.5-0.6,2.9-1.6,3.7-2.2c0.9-0.7,3.9-2.6,3.6-3.7c0.3-0.8,0.7-1.6,1-2.4c-2.5,1.9-5.1,3.3-8,4.5c-2.2,0.9-2.2,4.2,0.1,4.5
		c1.4,0.2,2.6,0.2,4.1-0.3c3.5-1,2.8-5.8-0.8-4.8c-0.4,0.1-0.9,0.1-1.3,0.2c0,1.5,0,3,0.1,4.5c3.3-1.4,6.4-3.2,9.3-5.4
		c0.7-0.5,1.3-1.7,1-2.4c-1.3-4-6-3.7-9.6-0.7c-1,0.8-1.9,1.8-3,2.5c-1.2,0.8-2.7,1.3-3.8,2.2c-2.1,1.8-1.4,3.8-1,5.8
		c0.4,1.6,2.1,2.1,3.9,1.4c1.7-0.7,4.2-0.3,6-0.8c2-0.5,4-1.4,5.8-2.5c1.4-0.9,2.4-1.8,3-3.2c0.8-1.9,0.3-3.3,2.3-4.9
		c1.9-1.5,1-4.4-1.4-4.2s-4.7,0.2-7,0.1c-1.8-0.1-4.2-1-6.1-0.5c-3.8,1.1-5.5,6.3-9,8.1c-1.5,0.8-1.9,2.2-1.5,3.4
		c0.7,2,1.8,3.7,3.2,5.3C488.1,737.2,492.4,733.6,490.3,731.3L490.3,731.3z"/>
	<path class="st2" d="M488.5,737.7l2.5-2.7c0,0-4.1-2.2-6.8-11.6l-2.9,1.2C481.3,724.6,479.5,733,488.5,737.7z"/>
	<path class="st2" d="M532,712.2l-4.2-3.2c0,0-1.1,7.8-10.8,10.4l3,3.4C520.1,722.6,528.4,722.8,532,712.2z"/>
	<path class="st3" d="M582.2,881.8L563,769.1l-61.5,6.1c-2.6,0.2-5.2,0.2-7.7,0l-52.8-6.1l-25,112.7
		C415.9,881.8,486.7,921.3,582.2,881.8z"/>
	<path class="st2" d="M517.5,772.7c0,0-13.7,1.5-37.7,0l-1.3,36.5l7.1,22.1l24.5-5l11.5-0.8L517.5,772.7z"/>
	<path class="st4" d="M486,772.8c-9.7-0.1-26.1-2.7-31.2-3.5c-0.8-0.1-1.5,0.5-1.5,1.4l0.8,8.6c0.2,1.6-2.3,1.9-2.5,0.3
		c-0.7-5.1,1.3-6.4,1.8-6.7c0.1-0.1,0.2-0.1,0.3-0.2l35-33.6c0.5-0.5,0.5-1.3,0-1.8c-3.8-4.1-6.3-9.3-7.4-11.8
		c-0.3-0.7-1.2-1-1.8-0.6L432.9,754c-0.2,0.1-0.3,0.3-0.4,0.4c-5.3,9.1-5.5,17.1-5.5,18.1c0,0.1,0,0.2,0,0.2l11.3,59.1
		c0,0.1,0,0.1,0,0.2c2.4,8.3,13.1,13.5,14,14c0.1,0,0.1,0,0.1,0.1c57.8,18.5,93.1-0.3,94.8-1.2c0,0,0.1,0,0.1-0.1
		c11-3.9,13.4-15.4,13.4-15.4l11.3-43c7.9-25.6,1.6-32,1.6-32c-4-8.1-42.4-45.5-42.4-45.5c-1.6,10.8-12.3,13.6-12.3,13.6l26.2,43.4
		c0.1,0.1,0.1,0.1,0.2,0.2c2.8,3,1.8,8.3,0.2,12.5c-0.5,1.4-2.6,0.9-2.4-0.5l0.7-7.3c0.1-0.8-0.7-1.5-1.5-1.4
		c-9.4,1.8-27.3,3.5-30.8,3.8c-0.4,0-0.8,0.3-1,0.6c-4.3,7.8-3.3,43.7-3.1,51.1c0,0.7-0.6,1.3-1.3,1.3l-17.4-0.7
		c-0.7,0-1.2-0.6-1.2-1.2l-0.4-50.2C487.2,773.3,486.7,772.8,486,772.8z"/>
	<polyline class="st2" points="487.5,807.1 478.7,802.6 466.1,831.3 489.7,845 516.1,841.2 529.6,827.5 516.4,802.6 507.3,807.1 	
		"/>
	<g>
		<path class="st5" d="M519.9,810.5c2.4-1.1,5.1-0.6,6.9,1c2.9,2.5,7.7,8.2,7.3,18.6c0,0,0.4,4.5-3,10.2c-1.4,2.4-2.6,5-3.1,7.7
			c-0.5,2.3-0.8,5-0.6,7.5c0.3,3.8-0.1,7.7-1.5,11.3c-2.7,6.8-9.2,15.4-24.7,18.7c0,0-20.9,2.7-27.7-12.1c-4.1-9-4.5-12.9-4.2-14.7
			c0.3-2.1,0.4-4.2-0.1-6.3c-0.4-1.7-1.1-3.6-2.1-5.1c0,0-13.1-26.7,1.8-31.5c0,0,13.3-7.6,13,15.2l32.3-1.5
			C514.2,829.6,512.3,813.9,519.9,810.5z"/>
		<path class="st1" d="M515.6,828.8c-1.1-1.6-3.1-4.1-6-5.2c-2.4-0.9-4.8-2.1-6.8-3.7c-1.5-1.2-3-2.7-3.7-4.1c0,0-2.4-2.4-4.3,0.4
			c0,0-1.5,5.3-6,7.3c0,0-6.7,3.1-9.1,6.7c-0.5,0.7-0.2,1.7,0.6,2.1c3.2,1.5,13,4.6,34.5-1.3C515.7,830.7,516.2,829.7,515.6,828.8z"
			/>
	</g>
</g>
</svg>
