<?xml version="1.0" encoding="utf-8"?>
<!-- Generator: Adobe Illustrator 21.1.0, SVG Export Plug-In . SVG Version: 6.00 Build 0)  -->
<svg version="1.1" id="Layer_1" xmlns="http://www.w3.org/2000/svg" xmlns:xlink="http://www.w3.org/1999/xlink" x="0px" y="0px"
	 viewBox="0 0 1000 1000" style="enable-background:new 0 0 1000 1000;" xml:space="preserve">
<style type="text/css">
	.st0{fill:#CDCAC7;}
	.st1{fill:#FFFFFF;}
	.st2{fill:#F1BF8E;}
	.st3{fill:#E2E2E2;}
	.st4{fill:#185379;}
	.st5{fill:#D4962B;}
</style>
<g>
	<path class="st0" d="M826.9,710.6l-93.2-66.1l-39.2,47.8c-1.7,2-3.5,3.8-5.5,5.4l-41.7,33l62,97.4
		C709.3,828.2,787.3,806.1,826.9,710.6z"/>
	<path class="st1" d="M657.3,696.6l36.7-36.7c2.4-2.4,2.4-6.2,0-8.6l-49.5-49.5c-2.4-2.4-6.2-2.4-8.6,0l-36.7,36.7
		c-2.4,2.4-2.4,6.2,0,8.6l49.5,49.5C651.1,698.9,654.9,698.9,657.3,696.6z"/>
	<path class="st2" d="M667.9,638.8c-1.4,2.4-9.9,0.1-12.4,0c-3.7,0-7.2,0.7-10.5,2.3c-1.5,0.7-2.2,3.1-1.2,4.4
		c0.5,0.7,1,1.4,1.6,2.1c-0.3-0.8-0.6-1.5-1-2.3c-0.3-0.9-0.9-1-1.8-0.1c-1.5,0.6-2.3,1.5-2.4,3.2c-0.3,3-0.8,7.4,2.2,9.2
		c1.2,0.8,2.3,0.8,3.7,0.5c0.8-0.2,1.5-0.5,2.3-0.7c0.6-0.2,1.1-0.4,1.7-0.5c0.8-0.1,0.9-0.5,0.1-1.3c-2.9,2.1-1.3,6.8,2.4,6
		c9.9-2.2,23-6.6,21.5-19.3c-0.4-2.9-3.3-4.2-5.6-2.3c-3.7,3-6.3,6.3-11,7.7c-3.4,1.1-6.5-1.4-10.1-0.5c1.2,1.6,2.4,3.2,3.7,4.8
		c1.8-3.5,5.4-5.4,9.1-3.4c0.3-2,0.5-4,0.8-6c-3.9,0.9-7.2,2.6-10.4,5.1c-3.3,2.5,1.3,7.1,4.6,4.6c2.2-1.7,4.7-2.7,7.4-3.4
		c2.8-0.6,3.3-4.6,0.8-6c-6.8-3.7-14.5-0.9-18,5.9c-1.3,2.5,0.9,5.5,3.7,4.8c1.6-0.4,3.7,0.9,5.3,1.1c2.4,0.2,4.5-0.5,6.7-1.4
		c5-2,7.9-5.4,11.9-8.7c-1.9-0.8-3.7-1.5-5.6-2.3c1.1,9.3-9.6,11.4-16.6,13c0.8,2,1.6,4,2.4,6c2.9-2,3.8-6.4,1.5-9.3
		c-3-3.8-7-0.5-10.6-0.1c0.8,0.3,1.5,0.6,2.3,1c-0.6-0.6,0-3.6,0.1-4.4c-0.8,1.1-1.6,2.1-2.4,3.2c4.6-1.9,8.7-4,5.2-9.2
		c-0.4,1.5-0.8,3-1.2,4.4c4.4-2.1,9.4-1.4,14.1-0.8c4.5,0.6,8.6,0.2,11.2-4C675.7,638.5,670.1,635.2,667.9,638.8L667.9,638.8z"/>
	<path class="st2" d="M650.1,666.8c-2-0.1-3.7-0.6-5.4-1.4c0.5,1.3,1.1,2.6,1.6,3.9c0.7-2.3,0.9-4.5,0.9-6.8
		c-0.1-2.3-0.7-4.8-0.3-7.1c-0.3,0.8-0.7,1.6-1,2.3c1.6-1.6,3.6-2.8,5.3-4.3c1.8-1.6,3.5-3.4,5.1-5.3c-1.5-0.7-3-1.5-4.5-2.2
		c-0.2,1.9-0.2,3.7,0.4,5.4c0.6,1.6,2.1,2.9,2,4.7c-0.4,4.5-5,7.2-6.6,11.1c1.4-0.7,2.8-1.3,4.2-2c-0.9-0.6-1.9-1.1-2.7-1.9
		c0.4,0.6,0.7,1.3,1.1,1.9c-0.1-0.8,1-3.7,1.2-4.8c0.2-1.3,1.1-5.3-0.1-5.9c-0.4-0.9-0.7-1.8-1.1-2.8c-0.5,3.5-1.5,6.8-2.8,10.1
		c-1.1,2.6,1.7,5.2,3.7,3.6c1.3-1,2.3-2,3.1-3.6c2-3.7-2.4-6.9-4.5-3.2c-0.3,0.4-0.6,0.8-0.9,1.2c1.2,1.2,2.5,2.4,3.7,3.6
		c1.6-3.8,2.6-7.7,3.1-11.8c0.1-1-0.3-2.4-1.1-2.8c-4.3-2.2-7.8,1.9-8.3,7.1c-0.1,1.5-0.1,3-0.4,4.5c-0.3,1.6-1.1,3.2-1.3,4.8
		c-0.3,3.1,1.9,4.2,3.9,5.4c1.6,1,3.4,0.1,4.2-2c0.8-1.9,3.1-3.6,4.2-5.5c1.2-2,2.2-4.4,2.6-6.7c0.4-1.8,0.4-3.4-0.2-5
		c-0.9-2.2-2.4-2.9-2.1-5.8c0.3-2.7-2.7-4.3-4.5-2.2c-1.7,2-3.6,4-5.6,5.7c-1.6,1.4-4.2,2.6-5.3,4.6c-2.2,3.9,0.6,9.6-0.7,13.8
		c-0.6,1.8,0.3,3.3,1.6,3.9c2.2,1.1,4.4,1.5,6.8,1.6C653.1,673.4,653.7,667,650.1,666.8L650.1,666.8z"/>
	<path class="st3" d="M653.9,673.4l-0.2-4.2c0,0-5.1,1.5-14.8-3.8l-1.4,3.3C637.5,668.7,642.8,676.9,653.9,673.4z"/>
	<path class="st3" d="M671.8,636.4l-5.5,2.6c0,0,7.4,5.1,5,16.3l5-1.3C676.3,653.9,680.8,645.5,671.8,636.4z"/>
	<path class="st3" d="M705.5,678.3c0,0-9.9,12.2-30.4,30.4l25.9,28l22,10.6l16.1-23.5l8.7-9.9L705.5,678.3z"/>
	<path class="st4" d="M680.1,703.8c-7.9,7.8-23.2,18.9-28,22.4c-0.8,0.5-0.8,1.7-0.1,2.3l7.5,6.3c1.4,1.2-0.3,3.4-1.8,2.3
		c-4.6-3.6-4.1-6.2-3.9-6.8c0-0.1,0.1-0.3,0.1-0.4l1.1-55.3c0-0.8-0.6-1.4-1.4-1.5c-6.3-0.2-12.6-2.5-15.4-3.6
		c-0.8-0.3-1.7,0.2-1.9,1l-14.2,61.1c-0.1,0.2-0.1,0.5,0,0.7c3.1,11.6,9.3,18.2,10.2,19.1c0.1,0.1,0.1,0.1,0.2,0.2l56.8,38.6
		c0,0,0.1,0.1,0.2,0.1c8.6,4.7,21.4,0.4,22.6,0c0.1,0,0.1,0,0.2-0.1c61.4-31.7,74.8-75.2,75.5-77.4c0-0.1,0-0.1,0.1-0.2
		c5.8-12-1.6-23.2-1.6-23.2l-25.6-43.8c-14.3-27-24.5-27.2-24.5-27.2c-8.5-2.8-53.5,12.8-64.9,16.8c-1,0.4-1.3,1.7-0.4,2.4
		c5.9,5.1,5,13.5,4.2,17.3c-0.2,1,0.6,1.8,1.6,1.7l45.7-6c0.1,0,0.2,0,0.3,0c4.7,0.2,8.1,5.2,10.3,9.9c0.7,1.5-1.3,2.8-2.4,1.5
		l-5.3-6.5c-0.6-0.7-1.8-0.7-2.3,0.1c-6.1,9-19.2,24.8-21.8,27.9c-0.3,0.4-0.4,0.9-0.3,1.3c2.8,9.7,32.6,37.9,38.7,43.7
		c0.6,0.6,0.6,1.5,0,2.1L724.9,744c-0.6,0.5-1.4,0.5-2,0l-40.8-40.2C681.6,703.2,680.7,703.2,680.1,703.8z"/>
	<path class="st2" d="M736.2,718.9c0,0-6.3-3.4-16.9,4.8c0,0-4.7,4.8-8.4,3.2c0,0-5.3,0.7-3.1,5c0,0,4.4,7.1,3.5,11.5
		c0,0,0.6,11.1,6.9,13.3L736.2,718.9z"/>
	<path class="st5" d="M735.3,773.4c-13.6-8.1-27.9-20.5-10.6-42.7c3.3-4.3,7.8-4,9.7-9.1c3.3-9,21.4-5,31.3,0.9
		c13.6,8.1,17.9,26.1,9.5,40.2C766.8,776.7,749,781.5,735.3,773.4z"/>
</g>
</svg>
