<?xml version="1.0" encoding="utf-8"?>
<!-- Generator: Adobe Illustrator 21.1.0, SVG Export Plug-In . SVG Version: 6.00 Build 0)  -->
<svg version="1.1" id="Layer_1" xmlns="http://www.w3.org/2000/svg" xmlns:xlink="http://www.w3.org/1999/xlink" x="0px" y="0px"
	 viewBox="0 0 1000 1000" style="enable-background:new 0 0 1000 1000;" xml:space="preserve">
<style type="text/css">
	.st0{fill:#FFFFFF;}
	.st1{fill:#F1BF8E;}
	.st2{fill:#CDCAC7;}
	.st3{fill:#F3F3F0;}
	.st4{fill:#90663A;}
	.st5{fill:#1F82B6;}
	.st6{fill:#5D5855;}
</style>
<g>
	<path class="st0" d="M307.1,656.6l36.6,36.6c2.4,2.4,6.2,2.4,8.5,0l49.3-49.3c2.4-2.4,2.4-6.2,0-8.5l-36.6-36.6
		c-2.4-2.4-6.2-2.4-8.5,0l-49.3,49.3C304.7,650.5,304.7,654.3,307.1,656.6z"/>
	<path class="st1" d="M384.5,654.6c-1.4-3.1,0.1-6.2,0.2-9.3c0.1-2.7-0.3-5.3-1-7.9c-1.8-6.5-5.3-12.8-8.4-18.9
		c-1.4-2.8-5-1.4-4.2,1.5c0.6,2,1.2,4,1.7,6c0.6,2.5-0.3,3-2.6,3.6c-2.5,0.6-4.9,1.7-6.1,4.1c-1.2,2.5-0.2,4.6,0.5,7.2
		c1,3.4,0.5,6.6,2.7,9.7c1.1,1.5,2.5,2.7,3.4,4.3s0.8,3.2,1.5,4.8c1,2.3,3,2.8,5.2,2.4c2.1-0.4,5.9-1.5,6.9-3.6
		c1.2-2.5-1.6-4.5-3.5-5.9c-1.1-0.8-3.1-0.8-3.5,0.7c-0.2,0.7-0.3,1.4-0.5,2.2c1-0.4,2-0.7,3-1.1c-3.2-1.6-6-8-7.2-11.1
		c-0.5-1.4-1.6-4.2-1.1-5.6c0.6-1.5,4.8-2.4,6.2-2.9c-1.1-0.7-2.1-1.3-3.2-2c1.5,6.4,2,12.8,1.6,19.2c1.5-0.1,2.9-0.2,4.4-0.3
		c-2.1-5.3-4-10.6-4.7-16.2c-0.2-1.8-2.4-2.6-3.7-1.8c-5.5,3.5-1.1,9.1,1.3,14.1c1.3,2.8,5.5,1.3,4.2-1.5c-1-2.1-4.8-7.4-2.6-8.8
		c-1.2-0.6-2.5-1.2-3.7-1.8c0.8,6,2.8,11.7,5,17.4c0.8,2.2,4.3,2,4.4-0.3c0.4-6.8-0.1-13.6-1.7-20.3c-0.3-1.4-1.8-2.6-3.2-2
		c-2.4,1-6.9,1.6-8.4,3.9c-1.3,1.9-0.5,5.8,0.1,8c1.4,5.3,5.4,13.7,10.6,16.3c1,0.5,2.7,0.1,3-1.1c0.2-0.7,0.3-1.4,0.5-2.2
		c-1.2,0.2-2.3,0.5-3.5,0.7c0.9,1.2,1.3,1.3,1.4,0.3c-0.5,0.2-1.1,0.5-1.6,0.7c-1.6,0.8-1.1,0.9-1.6-0.3c-0.8-1.8-1.2-3.6-2.4-5.2
		c-2-2.8-3.7-4.3-4.1-7.8c-0.3-2-1.2-3.9-1.5-5.9c-0.8-5.2,7.7-3.3,9.2-7.6c1.2-3.4-1.3-8.6-2.2-11.9c-1.4,0.5-2.8,1-4.2,1.5
		c3.2,6.3,7.1,13,8.6,19.8c1.2,5.5-1.7,11,0.7,16.3C381.5,658.8,385.7,657.3,384.5,654.6L384.5,654.6z"/>
	<path class="st1" d="M332.1,666.5c0.7-2,1.7-3.7,3.1-5.3c-1.5,0.2-2.9,0.4-4.4,0.7c2.1,1.3,4.1,2.1,6.5,2.6c2.3,0.5,5,0.5,7.1,1.4
		c-0.7-0.6-1.3-1.1-2-1.7c1.1,2.1,1.7,4.4,2.6,6.6c1,2.3,2.3,4.5,3.7,6.7c1.2-1.4,2.4-2.7,3.6-4.1c-1.8-0.7-3.7-1.1-5.5-0.9
		c-1.8,0.2-3.6,1.5-5.3,0.8c-4.3-1.6-5.6-7-9-9.7c0.2,1.6,0.4,3.3,0.6,4.9c0.9-0.8,1.7-1.7,2.7-2.3c-0.8,0.2-1.5,0.4-2.3,0.6
		c0.8,0.1,3.3,2,4.4,2.5c1.2,0.5,4.9,2.5,5.9,1.4c1-0.2,2.1-0.3,3.1-0.5c-3.3-1.4-6.3-3.2-9.1-5.5c-2.2-1.7-5.7,0.4-4.8,3
		c0.6,1.6,1.3,2.9,2.5,4.2c3,3,7.6-0.8,4.6-3.8c-0.3-0.4-0.6-0.8-0.9-1.3c-1.6,1-3.2,2-4.8,3c3.3,2.6,6.9,4.6,10.7,6.3
		c0.9,0.4,2.5,0.2,3.1-0.5c3.5-3.9,0.5-8.6-4.5-10.4c-1.4-0.5-2.9-0.9-4.3-1.5c-1.5-0.7-2.9-2-4.4-2.5c-3-1.1-4.8,0.9-6.6,2.6
		c-1.5,1.4-1.1,3.5,0.6,4.9c1.6,1.3,2.6,4.1,4.1,5.7c1.6,1.8,3.7,3.4,5.8,4.4c1.7,0.8,3.2,1.3,5,1c2.5-0.4,3.7-1.8,6.4-0.7
		c2.6,1.1,5.1-1.8,3.6-4.1s-2.8-4.7-3.9-7.2c-0.9-2-1.2-5-2.9-6.7c-3.2-3.2-9.7-1.8-13.5-4.2c-1.7-1.1-3.4-0.6-4.4,0.7
		c-1.8,2-2.9,4.2-3.8,6.7C324.6,668,330.9,670.2,332.1,666.5L332.1,666.5z"/>
	<path class="st0" d="M322.6,667l3.8,0.9c0,0-0.1-4.8,7-12.1l-2.6-2.1C330.8,653.7,322.2,656.3,322.6,667z"/>
	<path class="st0" d="M387.1,658.6l-1.4-3.7c0,0-6.3,4.8-14.4,3.9l-0.1,4C371.2,662.9,379.4,667,387.1,658.6z"/>
	<path class="st2" d="M291.2,824.8l66.1-93.2l-47.8-39.2c-2-1.7-3.8-3.5-5.4-5.5l-33-41.7l-97.4,62
		C173.6,707.3,195.8,785.3,291.2,824.8z"/>
	<path class="st3" d="M324.1,704.2c0,0-12.2-9.9-30.3-30.3l-27.9,25.8l1.4,17.2l11.5,20.8l9.8,8.7L324.1,704.2z"/>
	<path class="st4" d="M264.5,626.8c5.4-0.5,9.6-0.5,13.9,1.5l53,24.6c0.3,0.2,0.3,0.5,0,0.7c-1.7,1.3-7.2,6.1-8.9,13.5
		c-0.1,0.2-0.3,0.4-0.5,0.3c-4.8-1.3-46.9-12.5-48.5-13.6l-0.1-0.1c-0.5-0.2-3.3-1.1-7.3,4.4c-1.1,1.5,1.1,3.1,2.2,1.7l6.6-8
		c0.6-0.7,1.7-0.7,2.2,0.1c3.5,4.9,14.9,20.5,22.6,28.3c0.4,0.4,0.5,1,0.3,1.5c-1.4,2.9-7.1,12.8-25.8,23.9
		c-0.1,0.1-0.2,0.2-0.3,0.3l-16.6,18c-0.5,0.6-0.5,1.5,0.1,2l15.7,13.8c0.4,0.3,1,0.4,1.4,0.3l13.6-5.3c0.3-0.1,0.5-0.3,0.7-0.6
		c2.3-3.6,20.1-31,29.6-33.6c0.4-0.1,0.9,0,1.2,0.3c3,2.5,18.9,15.6,27.9,21.8c0.8,0.5,0.8,1.7,0.1,2.3l-6.3,5.1
		c-0.9,0.7,0,2.1,1.1,1.6c0,0,23.9-19.3,27.1-69.1c0-0.2,0.2-0.4,0.5-0.4c2.1,0.1,12.6-1,17.1-4.5c0.3-0.2,0.6-0.1,0.7,0.3
		c1.1,4.5,6.5,29.5-1,56.6c-1.8,6.5-6.1,14.1-11.4,21.4c-11.8,16.4-27.2,29.9-44.6,40.1l-16.8,9.8c0,0-11.2,7.4-23.2,1.6h-0.1
		c-1.7-0.5-45.5-13.7-77.2-75.3V712c-0.3-0.9-4.8-14,0-22.6l31.9-51.6c3-4.9,7.9-8.4,13.5-9.6L264.5,626.8z"/>
	<path class="st5" d="M314.2,695.3L303.9,685c0,0-26,30.7-21.6,32.4C282.3,717.4,287.3,719.6,314.2,695.3z"/>
	<path class="st1" d="M282.5,744.7c0,0,5.7-4.3,2.6-17.3c0,0-2.4-6.3,0.5-9c0,0,1.5-5.1-3.3-4.9c0,0-8.2,1.1-11.9-1.5
		c0,0-10.3-4-15,0.8L282.5,744.7z"/>
	<path class="st6" d="M231.8,719.5c13-11.1,32.6-18.3,46.7,8.6c2.7,5.2,0.4,9.5,4.6,13.6c7.4,7.3-4.7,23.2-14.9,30.3
		c-6.5,4.5-9.1,1.4-16.3,3.2c-10,2.4-22-3.9-27.4-11.8c-5.7-8.2-10.3-16.1-2.6-27.8C225.8,729.8,220.3,729.3,231.8,719.5z"/>
</g>
</svg>
