<?xml version="1.0" encoding="utf-8"?>
<!-- Generator: Adobe Illustrator 21.1.0, SVG Export Plug-In . SVG Version: 6.00 Build 0)  -->
<svg version="1.1" id="Layer_1" xmlns="http://www.w3.org/2000/svg" xmlns:xlink="http://www.w3.org/1999/xlink" x="0px" y="0px"
	 viewBox="0 0 1000 1000" style="enable-background:new 0 0 1000 1000;" xml:space="preserve">
<style type="text/css">
	.st0{fill:#F1BF8E;}
	.st1{fill:#FFFFFF;}
	.st2{fill:#5A9AC1;}
	.st3{fill:#CDCAC7;}
	.st4{fill:#5D5855;}
	.st5{fill:#1F82B6;}
	.st6{fill:#BF772A;}
</style>
<g>
	<path class="st0" d="M575.9,317.1c-2.3,2.6-6.1,2.7-9.1,3.9c-2.7,1.1-5,2.6-7.2,4.5c-5.4,4.6-9.8,10.6-14.1,16.2
		c-2,2.6,1.3,5.3,3.6,3.3c1.7-1.4,3.3-2.9,5-4.3c2.1-1.7,3.1-1,4.9,0.9c1.9,2,4.2,3.8,7.1,3.9c3,0.1,4.7-1.8,6.8-3.6
		c2.8-2.4,6.2-3.4,8-6.8c0.9-1.7,1.4-3.5,2.4-5.1c1.1-1.6,2.7-2.2,3.9-3.6c1.7-2,1.2-4.1-0.3-5.9s-4.5-4.9-7.1-4.8
		c-3.1,0-3.6,3.5-3.9,5.8c-0.2,1.4,0.9,3.3,2.6,3c0.8-0.2,1.6-0.3,2.4-0.5c-0.9-0.8-1.7-1.5-2.6-2.3c0.1,3.7-4.7,9.1-7.2,11.6
		c-1.1,1.1-3.3,3.4-4.9,3.5c-1.8,0.1-4.8-3.5-6.1-4.6c-0.1,1.3-0.2,2.6-0.3,3.9c5.5-4.2,11.4-7.5,17.9-10c-0.9-1.3-1.7-2.7-2.6-4
		c-4.1,4.3-8.3,8.4-13.4,11.5c-1.6,1-1.3,3.4,0.2,4.2c6.3,3.6,9.5-3,13.1-7.4c2-2.4-1.6-5.7-3.6-3.3c-1.5,1.8-4.7,7.7-7.2,6.3
		c0.1,1.4,0.1,2.8,0.2,4.2c5.5-3.3,10-7.8,14.4-12.4c1.7-1.7-0.3-4.8-2.6-4c-6.8,2.6-13.2,6.1-19,10.5c-1.2,0.9-1.6,2.8-0.3,3.9
		c2.2,1.9,5.2,5.7,8.2,6.2c2.6,0.4,5.9-2.1,7.7-3.6c4.5-3.6,10.6-11,10.5-17c0-1.2-1.3-2.5-2.6-2.3c-0.8,0.2-1.6,0.3-2.4,0.5
		c0.9,1,1.7,2,2.6,3c0.7-1.3,0.6-1.8-0.4-1.4c0.5,0.4,1,0.8,1.6,1.2c1.7,1.2,1.4,0.6,0.5,1.7c-1.4,1.5-2.8,2.7-3.8,4.5
		c-1.7,3.1-2.3,5.4-5.4,7.3c-1.8,1.1-3.2,2.8-5,3.9c-4.7,3-7.2-5.7-12.2-5.3c-4,0.3-7.7,4.9-10.5,7.3c1.2,1.1,2.4,2.2,3.6,3.3
		c4.5-5.8,9-12.4,14.9-16.7c4.8-3.5,11.6-3.2,15.6-7.8C581.5,318,577.9,314.7,575.9,317.1L575.9,317.1z"/>
	<path class="st1" d="M697.7,343l-37.2-36c-2.4-2.3-6.2-2.3-8.5,0.1l-48.5,50.1c-2.3,2.4-2.3,6.2,0.1,8.5l37.2,36
		c2.4,2.3,6.2,2.3,8.5-0.1l48.5-50.1C700.2,349.1,700.1,345.3,697.7,343z"/>
	<path class="st0" d="M672.4,334.1c-0.7,2-1.7,3.7-3,5.3c1.5-0.2,2.9-0.5,4.4-0.7c-2.1-1.3-4.2-2.1-6.6-2.5c-2.3-0.4-5-0.4-7.1-1.3
		c0.7,0.5,1.3,1.1,2,1.6c-1.1-2-1.7-4.4-2.7-6.5c-1.1-2.3-2.4-4.5-3.8-6.6c-1.2,1.4-2.4,2.8-3.6,4.2c1.8,0.7,3.7,1.1,5.5,0.8
		c1.8-0.2,3.5-1.5,5.3-0.9c4.4,1.5,5.7,6.9,9.1,9.5c-0.2-1.6-0.5-3.3-0.7-4.9c-0.9,0.8-1.6,1.7-2.7,2.4c0.7-0.2,1.5-0.5,2.2-0.7
		c-0.8-0.1-3.3-2-4.4-2.4c-1.2-0.5-5-2.4-5.9-1.3c-1,0.2-2.1,0.3-3.1,0.5c3.3,1.4,6.3,3.1,9.2,5.3c2.3,1.7,5.6-0.5,4.7-3
		c-0.6-1.6-1.3-2.9-2.6-4.1c-3-3-7.6,0.9-4.6,3.9c0.3,0.4,0.6,0.8,0.9,1.3c1.6-1,3.1-2,4.7-3c-3.4-2.6-7-4.5-10.8-6.1
		c-0.9-0.4-2.5-0.2-3.1,0.5c-3.5,4-0.4,8.6,4.6,10.4c1.4,0.5,2.9,0.8,4.3,1.5c1.5,0.7,2.9,1.9,4.5,2.5c3,1,4.8-1,6.6-2.7
		c1.5-1.5,1.1-3.5-0.7-4.9c-1.7-1.3-2.7-4.1-4.2-5.7c-1.6-1.7-3.7-3.3-5.9-4.3c-1.7-0.8-3.2-1.2-5-1c-2.5,0.4-3.7,1.8-6.4,0.8
		c-2.6-1-5.1,1.9-3.6,4.2c1.5,2.3,2.9,4.7,4,7.2c0.9,2,1.3,5,3,6.6c3.2,3.2,9.7,1.6,13.6,4c1.7,1,3.4,0.5,4.4-0.7
		c1.7-2,2.8-4.2,3.7-6.8C679.9,332.5,673.6,330.4,672.4,334.1L672.4,334.1z"/>
	<path class="st2" d="M681.9,333.5l-3.8-0.8c0,0,0.2,4.8-6.8,12.2l2.6,2C673.9,346.9,682.5,344.1,681.9,333.5z"/>
	<path class="st2" d="M578,310.9l-3.5,4.9c0,0,8.9,0.8,12.3,11.7l3.7-3.6C590.5,323.9,590.2,314.4,578,310.9z"/>
	<path class="st3" d="M709.6,174.1L645,268.4l48.5,38.4c2,1.6,3.8,3.4,5.5,5.4l33.7,41.1l96.4-63.5
		C829,289.8,805.7,212.1,709.6,174.1z"/>
	<path class="st2" d="M678.7,295.2c0,0,12.3,9.7,30.8,29.8l27.5-26.2l-1.6-17.1L723.5,261l-10-8.5L678.7,295.2z"/>
	<path class="st4" d="M645,240.8C645,240.8,645.1,240.8,645,240.8l43.3-26.2c0,0,11.1-7.5,23.2-2h0.1c1.7,0.5,45.7,12.9,78.4,74v0.1
		c0.3,0.9,5.1,13.9,0.3,22.6l-38.8,68v0.1c-0.6,0.8-9.9,9.7-23.6,3.3l-55.5-33.5c0,0,7.6-5.4,9.3-14.5c0,0,47.4,11.8,49.2,12.9
		l0.1,0.1c0.6,0.2,4.8,1.4,10.2-9.7c0.5-1-0.9-1.9-1.6-1l-10.5,13.1c-0.4,0.5-1.1,0.5-1.5,0c-3.1-4.2-15.5-20.8-23.7-28.6
		c-0.3-0.3-0.4-0.7-0.2-1c1.1-2.6,6.3-12.8,25.6-24.6c0.1,0,0.2-0.1,0.2-0.2l16.7-18.7c0.4-0.4,0.3-1-0.1-1.4l-16.5-14
		c-0.3-0.2-0.7-0.3-1-0.2l-14,5.7c-0.2,0.1-0.3,0.2-0.5,0.4c-1.9,3.1-19.9,32-29.4,34.3c-0.3,0.1-0.6,0-0.8-0.2
		c-2.6-2.1-19.7-15.8-28.9-21.8c-0.5-0.3-0.6-1.1-0.1-1.5l6.7-5.6c0.9-0.8-0.1-2.1-1.1-1.6c-12.1,6.8-37.6,23.3-70.2,55.9
		c-0.4,0.4-1.2,0.4-1.5-0.2c-1.6-2.9-6.5-10.7-12-11.8c-0.7-0.1-1.1-1-0.6-1.6C583.2,303.5,634.4,249,645,240.8z"/>
	<path class="st5" d="M718.3,276.6c0,0-6,6-3,10c0,0,5.9,2.3,10.8-2.4L718.3,276.6z"/>
	<path class="st5" d="M688.7,304l10.5,10.1c0,0,20.2-25.7,16-27.6C715.2,286.6,710.5,284.2,688.7,304z"/>
	<path class="st0" d="M719.6,254.1c0,0-5.6,4.4-2.4,17.4c0,0,2.5,6.3-0.4,9c0,0-1.5,5.1,3.4,4.9c0,0,8.2-1.2,12,1.3
		c0,0,10.4,3.8,14.9-1.1L719.6,254.1z"/>
	<path class="st6" d="M769.2,276.6c-12.9,9.3-29.9,17.4-43.4-7.3c-2.6-4.8-0.6-8.8-4.5-12.5c-7-6.7,4-21.6,13.3-28.3
		c12.9-9.3,31.1-6,40.6,7.3C784.8,249.1,782.1,267.4,769.2,276.6z"/>
</g>
</svg>
