<?xml version="1.0" encoding="utf-8"?>
<!-- Generator: Adobe Illustrator 21.1.0, SVG Export Plug-In . SVG Version: 6.00 Build 0)  -->
<svg version="1.1" id="Layer_1" xmlns="http://www.w3.org/2000/svg" xmlns:xlink="http://www.w3.org/1999/xlink" x="0px" y="0px"
	 viewBox="0 0 1000 1000" style="enable-background:new 0 0 1000 1000;" xml:space="preserve">
<style type="text/css">
	.st0{fill:#FFFFFF;}
	.st1{fill:#F1BF8E;}
	.st2{fill:#CDCAC7;}
	.st3{fill:#185379;}
	.st4{fill:#8D8A84;}
	.st5{fill:#514025;}
	.st6{fill:none;stroke:#5D5855;stroke-width:5;stroke-linecap:round;stroke-miterlimit:10;}
	.st7{fill:none;stroke:#96908C;stroke-width:5;stroke-linecap:round;stroke-miterlimit:10;}
</style>
<g>
	<path class="st0" d="M247.5,474.8v51.7c0,3.3,2.7,6,6,6h69.8c3.3,0,6-2.7,6-6v-51.7c0-3.3-2.7-6-6-6h-69.8
		C250.2,468.7,247.5,471.4,247.5,474.8z"/>
	<path class="st1" d="M280.8,523c-0.7-2.7,7-7,8.7-8.7c2.6-2.6,4.6-5.5,5.8-9c0.5-1.6-0.6-3.7-2.3-4c-0.9-0.2-1.7-0.3-2.6-0.4
		c0.8,0.3,1.5,0.6,2.3,1c0.9,0.4,1.4,0,1.4-1.2c0.6-1.5,0.5-2.7-0.5-3.9c-1.9-2.3-4.6-5.7-8-5c-1.4,0.3-2.2,1.1-2.9,2.3
		c-0.4,0.7-0.7,1.4-1.1,2.1c-0.3,0.5-0.6,1.1-0.8,1.6c-0.6,0.6-0.3,1,0.8,1c0.6-3.5-3.9-5.8-5.9-2.5c-5.5,8.5-11.5,20.9-1.5,28.7
		c2.3,1.8,5.2,0.6,5.5-2.3c0.5-4.7,0-8.9,2.3-13.2c1.7-3.2,5.5-3.6,7.4-6.8c-2-0.3-4-0.5-5.9-0.8c1.2,3.8,0,7.7-4,8.9
		c1.2,1.6,2.4,3.2,3.7,4.8c2.1-3.4,3.2-7,3.8-10.9c0.5-4.1-6-4.1-6.5,0c-0.4,2.8-1.4,5.3-2.9,7.6c-1.5,2.4,1,5.6,3.7,4.8
		c7.4-2.2,10.9-9.6,8.6-16.9c-0.8-2.6-4.5-3.2-5.9-0.8c-0.8,1.4-3.3,2-4.5,3c-1.8,1.5-2.9,3.5-3.8,5.7c-2.1,4.9-1.7,9.3-2.3,14.5
		c1.8-0.8,3.7-1.5,5.5-2.3c-7.4-5.8-1.3-14.8,2.5-20.9c-2-0.8-4-1.7-5.9-2.5c-0.6,3.5,1.8,7.2,5.5,7.7c4.8,0.6,5.3-4.6,7.5-7.4
		c-0.8,0.3-1.5,0.6-2.3,1c0.9,0,2.5,2.5,3,3.1c-0.2-1.3-0.3-2.6-0.5-3.9c-1.9,4.6-3.3,9,2.9,10.2c-0.8-1.3-1.5-2.7-2.3-4
		c-1.6,4.6-5.6,7.7-9.4,10.5c-3.6,2.7-6.2,5.9-5.1,10.7C275.5,528.7,281.8,527,280.8,523L280.8,523z"/>
	<path class="st1" d="M245.1,508.4c2.3-0.6,4.4-0.6,6.6-0.3c-1.1-1.2-2.2-2.4-3.2-3.6c0,2.7,0.5,5,1.5,7.5c0.9,2.4,2.5,4.8,2.9,7.3
		c0.1-0.9,0.2-1.9,0.3-2.8c-1.2,2.2-3.1,4.2-4.4,6.3c-1.5,2.3-2.7,4.8-3.9,7.3c2,0.3,3.9,0.6,5.9,0.9c-0.4-2-1.2-4-2.4-5.6
		c-1.2-1.5-3.5-2.4-3.9-4.3c-1.2-4.9,3-9.3,3.4-14c-1.4,1.2-2.7,2.3-4.1,3.5c1.3,0.3,2.5,0.5,3.7,1.1c-0.6-0.6-1.3-1.1-1.9-1.7
		c0.4,0.9,0.1,4.2,0.3,5.5c0.2,1.4,0.7,5.9,2.3,6.2c0.8,0.8,1.5,1.7,2.3,2.5c-0.7-3.9-0.8-7.7-0.5-11.6c0.3-3.1-3.8-4.9-5.5-2.6
		c-1.1,1.5-1.9,2.9-2.3,4.8c-1,4.5,5.3,6.5,6.2,1.9c0.2-0.5,0.4-1.1,0.6-1.6c-1.8-0.9-3.7-1.7-5.5-2.6c-0.4,4.6-0.1,9,0.7,13.5
		c0.2,1.1,1.2,2.4,2.3,2.5c5.7,0.9,8.2-4.7,6.9-10.3c-0.4-1.6-0.9-3.2-1.2-4.8c-0.2-1.8,0.1-3.8-0.3-5.5c-0.8-3.4-3.7-3.8-6.3-4.4
		c-2.2-0.5-3.9,1.1-4.1,3.5c-0.2,2.3-2.2,4.9-2.8,7.2c-0.6,2.5-0.9,5.3-0.6,7.9c0.2,2.1,0.7,3.7,2.1,5.2c1.8,2.1,3.8,2.3,4.4,5.5
		c0.6,3,4.7,3.6,5.9,0.9c1.3-2.7,2.6-5.4,4.3-7.9c1.3-2,3.8-4.1,4.4-6.6c1.1-4.8-4.2-9.9-4.2-14.8c0-2.1-1.5-3.4-3.2-3.6
		c-2.9-0.4-5.6-0.2-8.4,0.6C239.3,502.4,241.1,509.4,245.1,508.4L245.1,508.4z"/>
	<path class="st0" d="M239,500l1.4,4c0,0,4.4-3,15.3-0.8l0.4-3.6C256,499.6,248.6,493.3,239,500z"/>
	<path class="st0" d="M279.7,527.4l2-5.6c0,0-8.8,1.6-15-8l-2.6,4.4C264.2,518.3,267,527.3,279.7,527.4z"/>
	<path class="st2" d="M118,583.7l112.7-19.2l-6.1-61.5c-0.2-2.6-0.2-5.2,0-7.7l6.1-52.8l-112.7-25C118,417.4,78.4,488.2,118,583.7z"
		/>
	<path class="st0" d="M226.4,521.6c0,0-1.6-15.6,0-42.9l-37.9-1.5l-11.2,13.1l-6.6,22.8l0.8,13.1L226.4,521.6z"/>
	<path class="st3" d="M180.1,516.8c0,0,37.8-8.5,45.8-2.6c0,0,2.4,26.6,4.7,37.6l-18.5-1.8c0,0,15.6,9.4,22,3.2l29.3-38.3
		c0,0,6.9,13.8,18.8,10.5c0,0-25.9,55.5-35.1,60.1c0,0-7.3,7.1-36.4-1.8l-48.9-12.8c0,0-13.2-2.8-17.6-15.4c0,0-22.9-40.6-1.4-108
		c0,0,6.2-13.3,16-16l75.9-19.5c0,0,17-3,18.8,14.7l3.9,73.3c0,0-14.4-4.8-20.6,1.6l-10.5-52.7c0,0-1.8-6.4-20.4,1.8l24.7-2.3
		c0,0-4.5,25.9-4.3,38.7c0,0-10.8,5.5-36.2-1.1l-26.1,1.1l1.5,23.2L180.1,516.8z"/>
	<path class="st4" d="M225.8,508.3v-14.6c0,0-51.6,3.8-50,8.1C175.8,501.8,196.4,506.5,225.8,508.3z"/>
	<path class="st1" d="M177.8,518.7c0,0,7.1-0.9,11-13.6c0,0,0.9-5.6,4.1-7.2c0.9-0.5,1.7-1.1,2.2-2c0.6-1.2,0.8-3-1.6-4.2
		c0,0-7.7-3.2-9.5-7.3c0,0-6.9-8.7-13.3-6.8L177.8,518.7z"/>
	<path class="st5" d="M147.1,473.7c15.8-1.2,34.6,0.6,33.3,28.7c-0.2,5.5-4.1,7.8-2.6,13.1c2.5,9.3-14.6,16.4-26.1,17.3
		c-15.8,1.2-29.7-11-30.9-27.3S131.2,475,147.1,473.7z"/>
	<line class="st6" x1="277.8" y1="521.2" x2="281.8" y2="496.7"/>
	<line class="st7" x1="279.6" y1="510.4" x2="283.5" y2="485.9"/>
	<g>
		<g>
			<path class="st1" d="M278.8,494c-5.4,1.7-7.7,9-8,14c-0.2,3.8,5.7,3.8,6,0c0.1-1.6,0.4-3.2,1.1-4.7c0.5-1,1.4-3.2,2.5-3.5
				C284,498.6,282.5,492.9,278.8,494L278.8,494z"/>
		</g>
	</g>
</g>
</svg>
