<?xml version="1.0" encoding="utf-8"?>
<!-- Generator: Adobe Illustrator 21.1.0, SVG Export Plug-In . SVG Version: 6.00 Build 0)  -->
<svg version="1.1" id="Layer_1" xmlns="http://www.w3.org/2000/svg" xmlns:xlink="http://www.w3.org/1999/xlink" x="0px" y="0px"
	 viewBox="0 0 1000 1000" style="enable-background:new 0 0 1000 1000;" xml:space="preserve">
<style type="text/css">
	.st0{fill:#FFFFFF;}
	.st1{fill:#F1BF8E;}
	.st2{fill:#CDCAC7;}
	.st3{fill:#185379;}
	.st4{fill:#1F82B6;}
	.st5{fill:#8F5A24;}
</style>
<g>
	<path class="st0" d="M525.2,248.8h-51.7c-3.3,0-6,2.7-6,6v69.8c0,3.3,2.7,6,6,6h51.7c3.3,0,6-2.7,6-6v-69.8
		C531.3,251.5,528.6,248.8,525.2,248.8z"/>
	<path class="st1" d="M477,282c2.7-0.7,7,7,8.7,8.7c2.6,2.6,5.5,4.6,9,5.8c1.6,0.5,3.7-0.6,4-2.3c0.2-0.9,0.3-1.7,0.4-2.6
		c-0.3,0.8-0.6,1.5-1,2.3c-0.4,0.9,0,1.4,1.2,1.4c1.5,0.6,2.7,0.5,3.9-0.5c2.3-1.9,5.7-4.6,5-8c-0.3-1.4-1.1-2.2-2.3-2.9
		c-0.7-0.4-1.4-0.7-2.1-1.1c-0.5-0.3-1.1-0.6-1.6-0.8c-0.6-0.6-1-0.3-1,0.8c3.5,0.6,5.8-3.9,2.5-5.9c-8.5-5.5-20.9-11.5-28.7-1.5
		c-1.8,2.3-0.6,5.2,2.3,5.5c4.7,0.5,8.9,0,13.2,2.3c3.2,1.7,3.6,5.5,6.8,7.4c0.3-2,0.5-4,0.8-5.9c-3.8,1.2-7.7,0-8.9-4
		c-1.6,1.2-3.2,2.4-4.8,3.7c3.4,2.1,7,3.2,10.9,3.8c4.1,0.5,4.1-6,0-6.5c-2.8-0.4-5.3-1.4-7.6-2.9c-2.4-1.5-5.6,1-4.8,3.7
		c2.2,7.4,9.6,10.9,16.9,8.6c2.6-0.8,3.2-4.5,0.8-5.9c-1.4-0.8-2-3.3-3-4.5c-1.5-1.8-3.5-2.9-5.7-3.8c-4.9-2.1-9.3-1.7-14.5-2.3
		c0.8,1.8,1.5,3.7,2.3,5.5c5.8-7.4,14.8-1.3,20.9,2.5c0.8-2,1.7-4,2.5-5.9c-3.5-0.6-7.2,1.8-7.7,5.5c-0.6,4.8,4.6,5.3,7.4,7.5
		c-0.3-0.8-0.6-1.5-1-2.3c0,0.9-2.5,2.5-3.1,3c1.3-0.2,2.6-0.3,3.9-0.5c-4.6-1.9-9-3.3-10.2,2.9c1.3-0.8,2.7-1.5,4-2.3
		c-4.6-1.6-7.7-5.6-10.5-9.4c-2.7-3.6-5.9-6.2-10.7-5.1C471.3,276.8,473,283,477,282L477,282z"/>
	<path class="st1" d="M491.6,246.4c0.6,2.3,0.6,4.4,0.3,6.6c1.2-1.1,2.4-2.2,3.6-3.2c-2.7,0-5,0.5-7.5,1.5c-2.4,0.9-4.8,2.5-7.3,2.9
		c0.9,0.1,1.9,0.2,2.8,0.3c-2.2-1.2-4.2-3.1-6.3-4.4c-2.3-1.5-4.8-2.7-7.3-3.9c-0.3,2-0.6,3.9-0.9,5.9c2-0.4,4-1.2,5.6-2.4
		c1.5-1.2,2.4-3.5,4.3-3.9c4.9-1.2,9.3,3,14,3.4c-1.2-1.4-2.3-2.7-3.5-4.1c-0.3,1.3-0.5,2.5-1.1,3.7c0.6-0.6,1.1-1.3,1.7-1.9
		c-0.9,0.4-4.2,0.1-5.5,0.3c-1.4,0.2-5.9,0.7-6.2,2.3c-0.8,0.8-1.7,1.5-2.5,2.3c3.9-0.7,7.7-0.8,11.6-0.5c3.1,0.3,4.9-3.8,2.6-5.5
		c-1.5-1.1-2.9-1.9-4.8-2.3c-4.5-1-6.5,5.3-1.9,6.2c0.5,0.2,1.1,0.4,1.6,0.6c0.9-1.8,1.7-3.7,2.6-5.5c-4.6-0.4-9-0.1-13.5,0.7
		c-1.1,0.2-2.4,1.2-2.5,2.3c-0.9,5.7,4.7,8.2,10.3,6.9c1.6-0.4,3.2-0.9,4.8-1.2c1.8-0.2,3.8,0.1,5.5-0.3c3.4-0.8,3.8-3.7,4.4-6.3
		c0.5-2.2-1.1-3.9-3.5-4.1c-2.3-0.2-4.9-2.2-7.2-2.8c-2.5-0.6-5.3-0.9-7.9-0.6c-2.1,0.2-3.7,0.7-5.2,2.1c-2.1,1.8-2.3,3.8-5.5,4.4
		c-3,0.6-3.6,4.7-0.9,5.9c2.7,1.3,5.4,2.6,7.9,4.3c2,1.3,4.1,3.8,6.6,4.4c4.8,1.1,9.9-4.2,14.8-4.2c2.1,0,3.4-1.5,3.6-3.2
		c0.4-2.9,0.2-5.6-0.6-8.4C497.6,240.6,490.6,242.3,491.6,246.4L491.6,246.4z"/>
	<path class="st0" d="M500,240.3l-4,1.4c0,0,3,4.4,0.8,15.3l3.6,0.4C500.4,257.3,506.7,249.8,500,240.3z"/>
	<path class="st0" d="M472.6,281l5.6,2c0,0-1.6-8.8,8-15l-4.4-2.6C481.7,265.4,472.7,268.3,472.6,281z"/>
	<path class="st2" d="M416.3,119.2l19.2,112.7l61.5-6.1c2.6-0.2,5.2-0.2,7.7,0l52.8,6.1l25-112.7
		C582.6,119.2,511.8,79.7,416.3,119.2z"/>
	<path class="st0" d="M478.4,227.7c0,0,15.6-1.6,42.9,0l1.5-37.9l-13.1-11.2l-22.8-6.6l-13.1,0.8L478.4,227.7z"/>
	<path class="st3" d="M483.2,181.4c0,0,8.5,37.8,2.6,45.8c0,0-26.6,2.4-37.6,4.7l1.8-18.5c0,0-9.4,15.6-3.2,22l38.3,29.3
		c0,0-13.8,6.9-10.5,18.8c0,0-55.5-25.9-60.1-35.1c0,0-7.1-7.3,1.8-36.4l12.8-48.9c0,0,2.8-13.2,15.4-17.6c0,0,40.6-22.9,108-1.4
		c0,0,13.3,6.2,16,16L588,236c0,0,3,17-14.7,18.8l-73.3,3.9c0,0,4.8-14.4-1.6-20.6l52.7-10.5c0,0,6.4-1.8-1.8-20.4l2.3,24.7
		c0,0-25.9-4.5-38.7-4.3c0,0-5.5-10.8,1.1-36.2l-1.1-26.1l-23.2,1.5L483.2,181.4z"/>
	<path class="st4" d="M493.9,186.9c0,0-0.2,8.5,4.8,9.2c0,0,5.8-2.4,6.1-9.2H493.9z"/>
	<path class="st4" d="M491.7,227.1h14.6c0,0-3.4-32.5-7.7-31C498.6,196.1,493.5,197.7,491.7,227.1z"/>
	<path class="st1" d="M488.8,182.6c0,0,3,6.5,16.4,6.3c0,0,6.7-1,8.7,2.5c0,0,4.6,2.6,5.5-2.2c0,0,0.7-8.3,4.1-11.3
		c0,0,6.1-9.2,2.4-14.8L488.8,182.6z"/>
	<path class="st5" d="M522.2,139.5c6,14.7,10,33.1-17.1,40.5c-5.3,1.4-8.6-1.5-13.2,1.5c-8.1,5.2-20.1-8.9-24.5-19.5
		c-6-14.7,1.4-31.6,16.5-37.8S516.1,124.8,522.2,139.5z"/>
</g>
</svg>
